<svg width="20" height="20" viewBox="0 0 20 20" fill="none" xmlns="http://www.w3.org/2000/svg">
<circle cx="10" cy="10" r="9.5" stroke="#038CA9"/>
<path fill-rule="evenodd" clip-rule="evenodd" d="M2.66365 9.84223C2.66365 10.1254 2.89325 10.355 3.17647 10.355L9.33031 10.355L9.33031 16.509C9.33031 16.7922 9.55991 17.0218 9.84313 17.0218C10.1264 17.0218 10.356 16.7922 10.356 16.509L10.356 10.355L16.5098 10.355C16.793 10.355 17.0226 10.1254 17.0226 9.84223C17.0226 9.559 16.793 9.32941 16.5098 9.32941L10.356 9.32941L10.356 3.17567C10.356 2.89245 10.1264 2.66285 9.84313 2.66285C9.55991 2.66285 9.33031 2.89245 9.33031 3.17567L9.33031 9.32941L3.17647 9.32941C2.89325 9.32941 2.66365 9.559 2.66365 9.84223Z" fill="#038CA9"/>
</svg>
