<svg width="30" height="30" viewBox="0 0 30 30" fill="none" xmlns="http://www.w3.org/2000/svg">
<path d="M0 15.8817C0 15.2946 0 14.7076 0 14.1206C0.0146697 14.0252 0.0440092 13.9371 0.051344 13.8417C0.139362 12.4915 0.425422 11.178 0.887518 9.90855C3.50606 2.68062 11.127 -1.39197 18.5939 0.43519C26.3028 2.32106 31.2392 10.0333 29.7282 17.8189C29.1487 20.8055 27.7991 23.3885 25.6573 25.5458C23.4129 27.8059 20.721 29.2369 17.5817 29.7725C17.0169 29.8679 16.4448 29.9266 15.8726 30C15.2858 30 14.6991 30 14.1123 30C13.7162 29.956 13.3201 29.9119 12.924 29.8532C9.96807 29.435 7.34953 28.2536 5.1124 26.2796C2.48652 23.9608 0.836174 21.0623 0.227381 17.5841C0.132027 17.0191 0.0733486 16.4541 0 15.8817ZM25.4886 23.0289C29.3541 18.1198 29.3981 10.2534 23.897 5.22691C18.5059 0.281092 10.1588 0.670007 5.22976 6.07811C0.278725 11.5229 1.17358 18.9343 4.51094 23.0069C5.16374 21.5246 6.07326 20.2331 7.26151 19.1398C8.44976 18.0391 9.82138 17.2392 11.369 16.7035C8.07568 14.2013 8.26639 9.80582 10.5915 7.42097C12.7993 5.15353 16.5621 4.94072 18.9606 7.02472C20.2369 8.13275 20.9924 9.51964 21.1171 11.2C21.2858 13.4601 20.4056 15.2726 18.6159 16.7035C20.1855 17.2392 21.5425 18.0464 22.7234 19.1324C23.919 20.2331 24.8358 21.5319 25.4886 23.0289ZM15.0951 28.2536C15.3299 28.2389 15.6746 28.2242 16.012 28.1949C19.1073 27.9527 21.7699 26.7493 24.0363 24.6433C24.1024 24.5846 24.139 24.4305 24.1097 24.3497C22.7674 20.8202 20.2369 18.6701 16.5254 18.0097C13.9289 17.5474 11.5231 18.1638 9.36662 19.6901C7.70894 20.8642 6.55737 22.4272 5.86789 24.3424C5.81654 24.4818 5.84588 24.5625 5.95591 24.6653C8.51577 27.0134 11.5231 28.2022 15.0951 28.2536ZM14.9925 7.33291C12.5719 7.33291 10.5989 9.31417 10.5989 11.7357C10.6062 14.1426 12.572 16.1165 14.9778 16.1238C17.391 16.1312 19.3787 14.1573 19.386 11.7357C19.3934 9.31417 17.413 7.33291 14.9925 7.33291Z" fill="#038CA9"/>
</svg>
