<svg width="11" height="14" viewBox="0 0 11 14" fill="none" xmlns="http://www.w3.org/2000/svg">
<path d="M10.3346 3.30606C10.3346 2.69595 9.9268 2.28813 9.31668 2.28813C8.67445 2.28813 8.03544 2.28813 7.39321 2.28813C7.35146 2.28813 7.30651 2.28813 7.25513 2.28813C7.25513 2.16611 7.25513 2.06014 7.25513 1.95418C7.25192 1.24773 6.7574 0.753211 6.05417 0.75C5.58213 0.75 5.11009 0.75 4.63806 0.75C3.89949 0.75 3.4114 1.23809 3.4114 1.97665C3.4114 2.07941 3.4114 2.18217 3.4114 2.28813C3.36002 2.28813 3.33112 2.28813 3.29901 2.28813C2.6311 2.28813 1.95997 2.28492 1.29205 2.28813C0.762216 2.29456 0.341557 2.712 0.338346 3.24505C0.335135 3.68819 0.335135 4.13454 0.338346 4.57767C0.338346 4.8153 0.502114 4.97585 0.739738 4.97906C0.800749 4.97906 0.864972 4.97906 0.932406 4.97906C0.94525 5.27128 0.958095 5.54743 0.970939 5.82038C1.03195 7.10483 1.09296 8.38929 1.15397 9.67053C1.19251 10.4508 1.22141 11.2311 1.27279 12.0082C1.30169 12.4321 1.52968 12.7404 1.90859 12.9298C2.01777 12.9844 2.13979 13.0101 2.25539 13.0519C4.30731 13.0519 6.35922 13.0519 8.40793 13.0519C8.42719 13.0454 8.44325 13.0358 8.46252 13.0294C8.98272 12.9266 9.36485 12.5188 9.39375 11.9954C9.45797 10.8843 9.50613 9.77329 9.56072 8.65902C9.6121 7.57366 9.66348 6.49151 9.71486 5.40614C9.72128 5.26485 9.73092 5.12035 9.74055 4.97264C9.79514 4.97264 9.84009 4.97264 9.88184 4.97264C10.1869 4.97264 10.3314 4.82493 10.3314 4.52308C10.3346 4.1249 10.3378 3.71388 10.3346 3.30606ZM4.18529 1.87711C4.19492 1.68123 4.35869 1.52388 4.55457 1.52067C5.07477 1.51746 5.59497 1.51746 6.11518 1.52067C6.31427 1.52067 6.47482 1.68123 6.48446 1.87711C6.49088 2.00876 6.48446 2.14042 6.48446 2.28171C5.717 2.28171 4.95596 2.28171 4.17886 2.28171C4.18207 2.14042 4.17886 2.00876 4.18529 1.87711ZM8.96345 5.11393C8.91208 6.21535 8.85749 7.31356 8.80611 8.41498C8.76115 9.32694 8.71941 10.2389 8.67766 11.1509C8.66803 11.3853 8.6584 11.6229 8.64555 11.8573C8.62628 12.1592 8.48499 12.2876 8.18636 12.2876C6.29179 12.2876 4.39722 12.2876 2.50265 12.2876C2.18475 12.2876 2.04346 12.1624 2.0274 11.8477C1.98887 11.1188 1.95676 10.393 1.92465 9.66411C1.86363 8.37644 1.80262 7.08878 1.74161 5.80111C1.72877 5.53459 1.71913 5.26485 1.70629 4.98549C4.13391 4.98549 6.54547 4.98549 8.96988 4.98549C8.96666 5.03044 8.96667 5.07219 8.96345 5.11393ZM9.56715 4.20839C6.74135 4.20839 3.93161 4.20839 1.11544 4.20839C1.11223 4.17949 1.10581 4.1538 1.10581 4.1249C1.10581 3.84874 1.10581 3.57259 1.10581 3.29643C1.10581 3.12624 1.17324 3.05881 1.34664 3.05881C1.3627 3.05881 1.37875 3.05881 1.39481 3.05881C4.02152 3.05881 6.64823 3.05881 9.27493 3.05881C9.51256 3.05881 9.56394 3.11018 9.56394 3.3446C9.56715 3.62718 9.56715 3.91297 9.56715 4.20839ZM3.79674 6.10296C3.79995 6.13828 3.79995 6.17361 3.79995 6.21214C3.79995 7.82734 3.79995 9.43933 3.79995 11.0545C3.79995 11.1059 3.80316 11.1605 3.79032 11.2087C3.75178 11.4013 3.56875 11.5362 3.37608 11.5137C3.18341 11.4945 3.03249 11.3339 3.03249 11.1316C3.02928 10.6467 3.03249 10.1618 3.03249 9.67695C3.03249 9.32694 3.03249 8.98014 3.03249 8.63012C3.03249 7.80486 3.03249 6.9796 3.03249 6.15434C3.03249 5.85891 3.29259 5.66946 3.55269 5.77221C3.69719 5.83323 3.77747 5.94883 3.79674 6.10296ZM5.72021 6.10296C5.72342 6.13828 5.72342 6.17361 5.72342 6.21214C5.72342 7.82734 5.72342 9.43933 5.72342 11.0545C5.72342 11.1059 5.72663 11.1605 5.71379 11.2087C5.67525 11.4013 5.49222 11.533 5.29955 11.5137C5.10688 11.4945 4.95596 11.3339 4.95596 11.1316C4.95275 10.6403 4.95596 10.1458 4.95596 9.65448C4.95596 9.31409 4.95596 8.97371 4.95596 8.63333C4.95596 7.80807 4.95596 6.98281 4.95596 6.15755C4.95596 5.86213 5.21606 5.67267 5.47616 5.77542C5.62066 5.83323 5.70094 5.94883 5.72021 6.10296ZM7.64368 8.63333C7.64368 9.4586 7.64368 10.2839 7.64368 11.1091C7.64368 11.2825 7.56982 11.411 7.41248 11.4848C7.26155 11.5523 7.12347 11.5234 7.00145 11.4142C6.90512 11.3275 6.873 11.2183 6.87622 11.0899C6.87943 10.438 6.87622 9.78292 6.87622 9.13106C6.87622 8.14203 6.87622 7.153 6.87622 6.16397C6.87622 5.86213 7.13953 5.67267 7.40284 5.77864C7.55698 5.83965 7.64368 5.98094 7.64368 6.17039C7.64368 6.99244 7.64368 7.8145 7.64368 8.63333Z" fill="#002229"/>
</svg>
