<svg width="50" height="45" viewBox="0 0 50 45" fill="none" xmlns="http://www.w3.org/2000/svg">
<path d="M49.9906 21.8675C49.9906 27.3142 50.0051 32.7754 49.9906 38.222C49.9906 41.5133 47.9954 44.0473 44.8643 44.7027C44.3255 44.8192 43.743 44.8483 43.1895 44.8483C37.1167 44.8629 31.0584 44.8483 24.9855 44.8483C18.8835 44.8483 12.7815 44.8483 6.66496 44.8483C3.63581 44.8483 1.21831 43.1881 0.34452 40.4356C0.126072 39.7366 0.0241292 38.9793 0.0241292 38.2366C-0.00499731 30.5909 -0.00499731 22.9452 0.00956592 15.2995C0.00956592 11.5567 2.80571 8.78973 6.51933 8.77516C8.22323 8.77516 9.94169 8.7606 11.6456 8.77516C12.1116 8.77516 12.3737 8.61497 12.5776 8.19263C13.2184 6.86738 13.8883 5.55669 14.5437 4.246C15.3592 2.61492 16.6699 1.79937 18.5049 1.79937C22.1894 1.79937 25.8884 1.79937 29.5729 1.79937C30.3739 1.79937 31.0292 2.23627 31.2768 2.92074C31.5244 3.61978 31.4225 4.30425 30.8545 4.75571C30.4904 5.04698 29.9516 5.25086 29.4855 5.25086C25.8884 5.29455 22.2913 5.27999 18.6942 5.26542C18.1408 5.26542 17.835 5.45475 17.6019 5.9499C16.9903 7.24602 16.3204 8.51302 15.6942 9.80915C14.8641 11.4548 13.5388 12.2703 11.7038 12.2703C9.97082 12.2703 8.25235 12.2703 6.51933 12.2703C4.72805 12.2849 3.49018 13.4791 3.49018 15.2704C3.49018 22.9597 3.49018 30.6491 3.49018 38.3385C3.49018 40.2026 4.72805 41.3677 6.66496 41.3677C15.0534 41.3677 23.4564 41.3677 31.8448 41.3677C35.6749 41.3677 39.5196 41.3677 43.3497 41.3677C44.9226 41.3677 46.0585 40.5521 46.3935 39.1686C46.4808 38.8045 46.4808 38.4113 46.4808 38.0327C46.4808 31.7268 46.4808 25.4209 46.4808 19.1151C46.4808 18.8675 46.4808 18.6053 46.5391 18.3578C46.7139 17.4548 47.4566 16.8869 48.3886 16.9597C49.2479 17.018 49.9323 17.717 49.9615 18.6199C50.0051 19.683 49.9906 20.7753 49.9906 21.8675ZM25.0001 14.5859C31.1021 14.6005 36.039 19.552 36.0244 25.6685C36.0099 31.7851 31.0584 36.7074 24.9418 36.6929C18.8398 36.6783 13.9175 31.6977 13.9466 25.5957C13.9903 19.5083 18.9418 14.5713 25.0001 14.5859ZM25.0292 18.0811C20.8787 18.0519 17.4563 21.4306 17.4418 25.6103C17.4272 29.7899 20.7767 33.1977 24.9418 33.2123C29.1215 33.2268 32.5147 29.8773 32.5293 25.6976C32.5584 21.5034 29.2234 18.1102 25.0292 18.0811ZM38.9516 8.77516C39.9128 8.78973 40.8594 8.77516 41.8643 8.77516C41.8643 9.7509 41.8352 10.6538 41.8789 11.5567C41.908 11.9499 42.0099 12.3868 42.2284 12.7218C42.6361 13.3626 43.4517 13.581 44.1507 13.348C44.8498 13.115 45.3303 12.4597 45.3449 11.6296C45.3595 10.7121 45.3449 9.78003 45.3449 8.78973C46.3206 8.78973 47.2381 8.81885 48.141 8.77516C48.5051 8.7606 48.8983 8.65866 49.2187 8.46933C49.8741 8.07613 50.1362 7.28971 49.9323 6.56155C49.7284 5.83339 49.0585 5.30911 48.2721 5.29455C47.3109 5.27999 46.3643 5.29455 45.3449 5.29455C45.3449 4.33338 45.3449 3.43046 45.3449 2.52754C45.3449 1.72656 45.01 1.1149 44.2672 0.794512C43.1459 0.299362 41.908 1.08578 41.8643 2.33821C41.8352 3.31395 41.8643 4.28969 41.8643 5.30911C40.8449 5.30911 39.9128 5.29455 38.9662 5.30911C38.2089 5.32368 37.641 5.67319 37.3351 6.37223C36.8545 7.4936 37.6846 8.74604 38.9516 8.77516Z" fill="white"/>
</svg>
