<svg width="30" height="27" viewBox="0 0 30 27" fill="none" xmlns="http://www.w3.org/2000/svg">
<path d="M29.9943 12.7338C29.9943 16.0018 30.0031 19.2785 29.9943 22.5465C29.9943 24.5213 28.7972 26.0417 26.9186 26.4349C26.5953 26.5048 26.2458 26.5223 25.9137 26.5223C22.27 26.531 18.635 26.5223 14.9913 26.5223C11.3301 26.5223 7.66891 26.5223 3.99898 26.5223C2.18149 26.5223 0.730988 25.5261 0.206712 23.8747C0.0756431 23.4552 0.0144775 23.0009 0.0144775 22.5552C-0.00299839 17.9678 -0.00299839 13.3804 0.00573955 8.79298C0.00573955 6.54732 1.68342 4.88712 3.9116 4.87838C4.93394 4.87838 5.96501 4.86964 6.98735 4.87838C7.26697 4.87838 7.42425 4.78226 7.54658 4.52886C7.93105 3.73371 8.33299 2.94729 8.7262 2.16088C9.21553 1.18223 10.0019 0.692906 11.1029 0.692906C13.3136 0.692906 15.5331 0.692906 17.7438 0.692906C18.2243 0.692906 18.6175 0.955044 18.7661 1.36573C18.9146 1.78515 18.8535 2.19583 18.5127 2.46671C18.2942 2.64147 17.9709 2.7638 17.6913 2.7638C15.5331 2.79001 13.3748 2.78127 11.2165 2.77254C10.8845 2.77254 10.701 2.88613 10.5612 3.18322C10.1942 3.9609 9.79223 4.7211 9.4165 5.49877C8.91844 6.48616 8.12328 6.97548 7.0223 6.97548C5.98249 6.97548 4.95141 6.97548 3.9116 6.97548C2.83683 6.98422 2.09411 7.70073 2.09411 8.7755C2.09411 13.3891 2.09411 18.0028 2.09411 22.6164C2.09411 23.7349 2.83683 24.4339 3.99898 24.4339C9.03203 24.4339 14.0738 24.4339 19.1069 24.4339C21.4049 24.4339 23.7118 24.4339 26.0098 24.4339C26.9535 24.4339 27.6351 23.9446 27.8361 23.1145C27.8885 22.896 27.8885 22.6601 27.8885 22.4329C27.8885 18.6494 27.8885 14.8658 27.8885 11.0823C27.8885 10.9338 27.8885 10.7765 27.9235 10.6279C28.0283 10.0862 28.4739 9.74541 29.0332 9.7891C29.5487 9.82405 29.9594 10.2435 29.9769 10.7852C30.0031 11.4231 29.9943 12.0784 29.9943 12.7338ZM15 8.36482C18.6612 8.37355 21.6234 11.3445 21.6147 15.0144C21.6059 18.6843 18.635 21.6377 14.9651 21.629C11.3039 21.6203 8.35047 18.6319 8.36795 14.9707C8.39416 11.3182 11.3651 8.35608 15 8.36482ZM15.0175 10.4619C12.5272 10.4444 10.4738 12.4716 10.4651 14.9794C10.4563 17.4872 12.466 19.5319 14.9651 19.5406C17.4729 19.5494 19.5088 17.5397 19.5176 15.0319C19.535 12.5153 17.534 10.4794 15.0175 10.4619ZM23.371 4.87838C23.9477 4.88712 24.5157 4.87838 25.1186 4.87838C25.1186 5.46382 25.1011 6.00557 25.1273 6.54733C25.1448 6.78325 25.206 7.04539 25.337 7.24636C25.5817 7.63083 26.071 7.7619 26.4904 7.62209C26.9099 7.48228 27.1982 7.08908 27.2069 6.59101C27.2157 6.04052 27.2069 5.4813 27.2069 4.88712C27.7924 4.88712 28.3429 4.90459 28.8846 4.87838C29.1031 4.86964 29.339 4.80848 29.5312 4.69488C29.9244 4.45896 30.0817 3.98711 29.9594 3.55021C29.8371 3.11332 29.4351 2.79875 28.9633 2.79001C28.3866 2.78127 27.8186 2.79001 27.2069 2.79001C27.2069 2.21331 27.2069 1.67156 27.2069 1.1298C27.2069 0.649216 27.006 0.282223 26.5603 0.0899884C25.8875 -0.207102 25.1448 0.264747 25.1186 1.01621C25.1011 1.60165 25.1186 2.18709 25.1186 2.79875C24.5069 2.79875 23.9477 2.79001 23.3797 2.79875C22.9254 2.80749 22.5846 3.0172 22.4011 3.43662C22.1127 4.10944 22.6108 4.8609 23.371 4.87838Z" fill="white"/>
</svg>
