<svg width="78" height="70" viewBox="0 0 78 70" fill="none" xmlns="http://www.w3.org/2000/svg">
<path d="M77.9853 33.999C77.9853 42.4957 78.008 51.0152 77.9853 59.512C77.9853 64.6464 74.8728 68.5994 69.9883 69.6218C69.1478 69.8035 68.239 69.849 67.3757 69.849C57.902 69.8717 48.4511 69.849 38.9774 69.849C29.4583 69.849 19.9392 69.849 10.3973 69.849C5.67186 69.849 1.90057 67.259 0.537452 62.9652C0.196672 61.8747 0.0376415 60.6934 0.0376415 59.5347C-0.0077958 47.6074 -0.0077958 35.6801 0.0149228 23.7528C0.0149228 17.9142 4.3769 13.5976 10.1702 13.5749C12.8282 13.5749 15.509 13.5522 18.1671 13.5749C18.8941 13.5749 19.303 13.325 19.6211 12.6662C20.6207 10.5988 21.6658 8.55408 22.6881 6.5094C23.9604 3.96491 26.005 2.69267 28.8676 2.69267C34.6154 2.69267 40.3859 2.69267 46.1338 2.69267C47.3833 2.69267 48.4056 3.37423 48.7918 4.442C49.1781 5.5325 49.019 6.60028 48.133 7.30455C47.565 7.75893 46.7244 8.07699 45.9974 8.07699C40.3859 8.14514 34.7744 8.12242 29.1629 8.09971C28.2996 8.09971 27.8225 8.39505 27.459 9.16748C26.5049 11.1894 25.4598 13.166 24.4829 15.1879C23.1879 17.7551 21.1205 19.0274 18.258 19.0274C15.5545 19.0274 12.8737 19.0274 10.1702 19.0274C7.37576 19.0501 5.44468 20.913 5.44468 23.7074C5.44468 35.7029 5.44468 47.6983 5.44468 59.6937C5.44468 62.6017 7.37576 64.4192 10.3973 64.4192C23.4833 64.4192 36.5919 64.4192 49.6779 64.4192C55.6529 64.4192 61.6506 64.4192 67.6256 64.4192C70.0792 64.4192 71.8513 63.147 72.3738 60.9887C72.5101 60.4207 72.5101 59.8073 72.5101 59.2166C72.5101 49.3795 72.5101 39.5423 72.5101 29.7051C72.5101 29.3189 72.5101 28.91 72.601 28.5238C72.8736 27.1152 74.0322 26.2292 75.4862 26.3428C76.8266 26.4336 77.8944 27.5241 77.9399 28.9327C78.008 30.5912 77.9853 32.2951 77.9853 33.999ZM39.0001 22.6396C48.5192 22.6624 56.2208 30.3867 56.1981 39.9285C56.1754 49.4703 48.4511 57.1493 38.9092 57.1265C29.3901 57.1038 21.7112 49.334 21.7567 39.8149C21.8248 30.3185 29.5492 22.6169 39.0001 22.6396ZM39.0455 28.0921C32.5707 28.0467 27.2319 33.3174 27.2091 39.8376C27.1864 46.3579 32.4117 51.6741 38.9092 51.6968C45.4295 51.7195 50.7229 46.4942 50.7456 39.974C50.7911 33.431 45.5885 28.1375 39.0455 28.0921ZM60.7646 13.5749C62.264 13.5976 63.7407 13.5749 65.3083 13.5749C65.3083 15.097 65.2629 16.5056 65.331 17.9142C65.3765 18.5276 65.5355 19.2091 65.8763 19.7316C66.5124 20.7313 67.7846 21.0721 68.8751 20.7086C69.9656 20.3451 70.7153 19.3227 70.7381 18.0278C70.7608 16.5965 70.7381 15.1425 70.7381 13.5976C72.2602 13.5976 73.6915 13.6431 75.1 13.5749C75.668 13.5522 76.2814 13.3931 76.7812 13.0978C77.8036 12.4844 78.2125 11.2576 77.8944 10.1217C77.5764 8.98573 76.5313 8.16786 75.3045 8.14514C73.8051 8.12242 72.3284 8.14514 70.7381 8.14514C70.7381 6.64571 70.7381 5.23716 70.7381 3.8286C70.7381 2.57908 70.2155 1.62489 69.0569 1.12508C67.3075 0.352649 65.3764 1.57946 65.3083 3.53326C65.2629 5.05541 65.3083 6.57756 65.3083 8.16786C63.718 8.16786 62.264 8.14514 60.7873 8.16786C59.6059 8.19058 58.7199 8.73583 58.2428 9.82632C57.4931 11.5757 58.788 13.5295 60.7646 13.5749Z" fill="#D9D9D9"/>
</svg>
