<svg width="15" height="15" viewBox="0 0 15 15" fill="none" xmlns="http://www.w3.org/2000/svg">
<path d="M14.7459 3.99318C14.7459 3.76209 14.726 3.52304 14.6782 3.29992C14.3594 1.79786 13.0964 0.761953 11.5545 0.757968C9.01653 0.746016 6.48255 0.75 3.94857 0.753984C3.79318 0.753984 3.6378 0.761953 3.4864 0.785858C1.89668 1.0289 0.761171 2.31979 0.749218 3.92545C0.737266 5.63469 0.733281 7.34393 0.753203 9.05317C0.765155 10.1608 1.2592 11.0373 2.16761 11.6708C2.50627 11.9059 2.88478 12.0533 3.29515 12.145C3.29515 12.2207 3.29515 12.2804 3.29515 12.3402C3.29515 12.9259 3.29117 13.5115 3.29515 14.1012C3.29914 14.4558 3.52624 14.7108 3.86889 14.7467C4.05216 14.7666 4.20755 14.6949 4.35496 14.5953C5.50243 13.8263 6.65387 13.0653 7.79735 12.2964C7.89696 12.2286 7.99657 12.2007 8.11609 12.2007C9.23567 12.2047 10.3513 12.2047 11.4708 12.2007C11.6939 12.2007 11.9211 12.1928 12.1362 12.1489C13.6861 11.8461 14.7379 10.5632 14.7419 8.96951C14.7499 7.31206 14.7499 5.65063 14.7459 3.99318ZM13.4709 8.98146C13.4709 10.097 12.6382 10.9337 11.5186 10.9377C10.2995 10.9417 9.08427 10.9417 7.86509 10.9377C7.64595 10.9377 7.46268 10.9935 7.2794 11.113C6.42677 11.6868 5.57016 12.2565 4.71355 12.8263C4.66972 12.8541 4.62589 12.882 4.55418 12.9259C4.55418 12.6629 4.55418 12.4278 4.55418 12.1888C4.55418 11.9936 4.55418 11.8023 4.55418 11.6071C4.55019 11.2047 4.31114 10.9576 3.90873 10.9377C3.0561 10.8979 2.37479 10.4118 2.1198 9.64683C2.05605 9.4516 2.01621 9.24043 2.01621 9.03325C2.00824 7.33198 2.00824 5.63469 2.01223 3.93341C2.02418 2.87759 2.86884 2.02894 3.92466 2.02894C6.47458 2.02496 9.0245 2.02496 11.5704 2.02894C12.6183 2.02894 13.463 2.87759 13.4669 3.92943C13.4749 5.61078 13.4749 7.29612 13.4709 8.98146ZM12.192 5.30798C12.1521 5.59485 11.8971 5.82992 11.5983 5.84187C11.3712 5.84984 11.1401 5.84585 10.913 5.84585C9.86119 5.84585 8.80537 5.84585 7.75353 5.84585C6.49052 5.84585 5.22751 5.84585 3.96451 5.84585C3.49038 5.84585 3.17563 5.41954 3.335 4.99322C3.41866 4.77011 3.57803 4.63464 3.80912 4.58683C3.87287 4.57488 3.93662 4.57089 4.00037 4.57089C6.49849 4.57089 9.0006 4.57089 11.4987 4.57089C11.5904 4.57089 11.69 4.58285 11.7776 4.61472C12.0685 4.71034 12.2318 4.99322 12.192 5.30798ZM10.913 7.6308C10.9887 8.01329 10.7138 8.37187 10.3234 8.38382C9.98072 8.39577 9.63808 8.3878 9.29543 8.3878C8.77748 8.3878 8.26351 8.3878 7.74556 8.3878C6.90488 8.3878 6.06819 8.39179 5.22751 8.3878C4.78128 8.38382 4.48644 8.02125 4.58605 7.60291C4.64581 7.33995 4.8769 7.14472 5.14783 7.1248C5.18369 7.12081 5.21556 7.12081 5.25142 7.12081C6.91684 7.12081 8.58225 7.12081 10.2437 7.12081C10.6023 7.12081 10.8493 7.31206 10.913 7.6308Z" fill="#038CA9"/>
</svg>
