<svg width="15" height="15" viewBox="0 0 15 15" fill="none" xmlns="http://www.w3.org/2000/svg">
<path d="M14.1137 8.22502C14.3759 7.8885 14.3759 7.5782 14.1093 7.24168C13.8471 6.90517 13.5805 6.57302 13.327 6.2365C13.2877 6.18405 13.2658 6.09665 13.2745 6.03109C13.327 5.60279 13.3925 5.17887 13.445 4.75057C13.4974 4.33101 13.3445 4.07316 12.9555 3.91583C12.5797 3.76286 12.1994 3.60553 11.8192 3.46131C11.71 3.4176 11.6444 3.36079 11.6007 3.24716C11.4477 2.84508 11.286 2.44738 11.1199 2.04967C10.9845 1.72189 10.7048 1.56019 10.3508 1.60826C9.91372 1.66508 9.47669 1.73063 9.03965 1.78308C8.96972 1.79182 8.87794 1.76997 8.82113 1.72626C8.48024 1.47278 8.14809 1.20619 7.81594 0.943966C7.47942 0.681743 7.1735 0.686114 6.83261 0.952707C6.50046 1.21056 6.17268 1.47278 5.84053 1.72626C5.78371 1.76997 5.69194 1.79182 5.62201 1.78308C5.18934 1.73063 4.75667 1.66508 4.32838 1.60826C3.93941 1.55582 3.67719 1.71315 3.5286 2.07152C3.36689 2.46923 3.20956 2.8713 3.03911 3.26464C3.00852 3.33456 2.9386 3.40886 2.86867 3.43508C2.46222 3.6099 2.05141 3.76723 1.64496 3.93331C1.32593 4.06442 1.15985 4.35286 1.20355 4.68938C1.26037 5.13079 1.3303 5.5722 1.38274 6.01798C1.39148 6.0879 1.36526 6.17968 1.32593 6.2365C1.07244 6.57739 0.80585 6.90954 0.543627 7.24168C0.290145 7.56946 0.290145 7.87976 0.543627 8.21191C0.80585 8.54843 1.07244 8.88058 1.32593 9.2171C1.36963 9.27391 1.39148 9.36569 1.38274 9.43562C1.3303 9.86828 1.26474 10.301 1.20793 10.7292C1.15985 11.1138 1.31718 11.3804 1.67556 11.529C2.05141 11.682 2.43163 11.8393 2.81185 11.9879C2.93423 12.036 3.01726 12.1059 3.06534 12.2327C3.21393 12.6304 3.37563 13.0237 3.53734 13.4127C3.66845 13.7317 3.95689 13.8934 4.29778 13.8497C4.73482 13.7929 5.17186 13.7273 5.6089 13.6749C5.68757 13.6661 5.79245 13.6967 5.85364 13.7448C6.19016 13.9939 6.51357 14.2649 6.85009 14.514C6.98557 14.6145 7.15164 14.667 7.32646 14.75C7.50127 14.667 7.66735 14.6145 7.80283 14.5184C8.14809 14.2693 8.4715 13.9939 8.81239 13.7404C8.87357 13.6967 8.96972 13.6661 9.04402 13.6749C9.47232 13.723 9.89624 13.7929 10.3245 13.8453C10.731 13.8978 10.9888 13.7404 11.1462 13.3602C11.3035 12.9713 11.4565 12.5823 11.6225 12.1977C11.6531 12.1234 11.7318 12.0491 11.8061 12.0185C12.1994 11.8481 12.6015 11.6951 12.9992 11.529C13.3532 11.3804 13.5062 11.1138 13.4581 10.738C13.4013 10.3053 13.3357 9.87702 13.2877 9.44436C13.2789 9.37006 13.3051 9.27391 13.3488 9.21273C13.5936 8.88495 13.8558 8.55717 14.1137 8.22502ZM12.619 7.87539C12.4048 8.12887 12.2082 8.39984 12.0028 8.65769C11.8629 8.8325 11.8017 9.0248 11.8367 9.25206C11.8935 9.64102 11.946 10.03 11.9984 10.4321C11.6925 10.5588 11.3909 10.6987 11.0762 10.7992C10.7266 10.9128 10.5081 11.1313 10.3945 11.481C10.2939 11.7913 10.1541 12.0884 10.0274 12.4031C9.69083 12.355 9.35432 12.3244 9.02654 12.2589C8.69002 12.1933 8.40594 12.2501 8.14809 12.4818C7.92957 12.6784 7.68046 12.8401 7.45757 13.0324C7.35705 13.1198 7.2915 13.1067 7.19535 13.0281C6.93749 12.8183 6.6709 12.6173 6.41305 12.4118C6.23386 12.2676 6.03283 12.2064 5.80557 12.2414C5.4166 12.2982 5.03201 12.3507 4.6343 12.4031C4.49445 12.0622 4.35023 11.7344 4.23223 11.3979C4.13171 11.1138 3.94815 10.9347 3.66845 10.8341C3.33193 10.7118 3.00415 10.5675 2.66326 10.4277C2.72008 10.0256 2.76815 9.63228 2.82497 9.23895C2.85556 9.02043 2.79874 8.8325 2.66326 8.65769C2.42289 8.35613 2.18689 8.05021 1.93778 7.7268C2.09948 7.51702 2.26119 7.30724 2.42726 7.09746C2.5103 6.9882 2.59771 6.88331 2.68074 6.77405C2.80748 6.61235 2.85556 6.42879 2.82934 6.22339C2.77252 5.83005 2.72008 5.43672 2.66326 5.0259C2.99978 4.89042 3.3363 4.74183 3.67282 4.61946C3.94815 4.51894 4.12734 4.33975 4.22786 4.06442C4.35023 3.7279 4.49445 3.40012 4.6343 3.05049C4.97082 3.09856 5.30734 3.12916 5.63512 3.19471C5.97164 3.26027 6.25572 3.20345 6.51357 2.97182C6.73209 2.77516 6.9812 2.61345 7.20409 2.42115C7.30461 2.33375 7.37016 2.34686 7.46631 2.42553C7.72853 2.63967 7.9995 2.84071 8.26172 3.05049C8.43217 3.18597 8.62446 3.24279 8.84298 3.21219C9.23631 3.15538 9.62965 3.10293 10.0317 3.05049C10.1716 3.39575 10.3158 3.7279 10.4425 4.06879C10.5431 4.33975 10.7179 4.51457 10.9888 4.61072C11.2904 4.71998 11.5832 4.85109 11.8848 4.96472C11.9853 5.00405 12.0115 5.05212 11.994 5.15701C11.9372 5.50664 11.8979 5.85627 11.8454 6.21028C11.8148 6.42879 11.8717 6.61672 12.0071 6.79154C12.2169 7.05813 12.418 7.32909 12.6365 7.58695C12.7151 7.71369 12.7064 7.77487 12.619 7.87539ZM9.92247 5.85627C10.2022 6.14035 10.1847 6.56865 9.87876 6.87457C8.97409 7.77924 8.06942 8.68828 7.16038 9.59295C6.83698 9.91636 6.43053 9.91636 6.10712 9.59295C5.66134 9.15154 5.21993 8.71013 4.77853 8.26435C4.47697 7.95843 4.46386 7.52576 4.74793 7.24168C5.03201 6.96198 5.46031 6.97509 5.7706 7.27665C6.05905 7.56072 6.33875 7.8448 6.64031 8.14635C7.08609 7.69621 7.51876 7.26791 7.95142 6.83524C8.26609 6.52057 8.58076 6.20153 8.8998 5.88687C9.20572 5.57657 9.63402 5.55909 9.92247 5.85627Z" fill="#038CA9"/>
</svg>
