<svg width="25" height="24" viewBox="0 0 25 24" fill="none" xmlns="http://www.w3.org/2000/svg">
<rect x="0.710938" width="24" height="24" rx="8" fill="#1CCD83"/>
<path d="M11.5586 13.888C12.6306 12.5907 13.6871 11.3167 14.7436 10.035C15.4427 9.18823 16.1341 8.3415 16.841 7.5103C17.1905 7.09859 17.6566 6.88885 18.1926 7.05975C18.7131 7.22288 18.9695 7.64236 19.0549 8.16283C19.1093 8.48909 18.9928 8.76875 18.783 9.01733C16.7866 11.4099 14.7902 13.8025 12.7937 16.2029C12.7161 16.2961 12.6306 16.3893 12.5607 16.4981C12.2034 17.0341 11.5198 17.1584 10.9993 16.7855C10.9216 16.7311 10.8517 16.6612 10.7818 16.5913C9.55441 15.3717 8.3348 14.1521 7.12297 12.9325C6.55589 12.3654 6.57919 11.5886 7.16181 11.0914C7.66674 10.6642 8.34257 10.6875 8.83974 11.1847C9.68647 12.0236 10.5254 12.8704 11.3722 13.7093C11.4188 13.7637 11.4809 13.8103 11.5586 13.888Z" fill="white"/>
</svg>
