<svg width="30" height="30" viewBox="0 0 30 30" fill="none" xmlns="http://www.w3.org/2000/svg">
<path d="M29.9711 6.65659C29.9711 6.23752 29.9362 5.80099 29.8576 5.39065C29.2116 2.16907 26.5575 0.0126109 23.2399 0.00388026C17.7396 -0.00485033 12.2393 0.00388026 6.73904 0.00388026C6.28505 0.00388026 5.82233 0.030072 5.37707 0.117378C2.19914 0.763442 0.0252217 3.40008 0.00776052 6.64786C-0.00970065 9.42418 0.00776052 12.2005 0.00776052 14.9856C0.00776052 17.7182 -0.000970065 20.4509 0.0164911 23.1923C0.0164911 23.6725 0.0426829 24.1527 0.129989 24.6241C0.776052 27.8457 3.43015 29.9847 6.75651 29.9935C12.248 30.0022 17.7396 30.0022 23.2224 29.9935C23.6851 29.9935 24.1653 29.9673 24.6193 29.8712C27.806 29.2252 29.9624 26.606 29.9711 23.3407C29.9799 17.7706 29.9711 12.2092 29.9711 6.65659ZM27.8758 23.2622C27.8758 25.6282 26.3479 27.4354 24.0343 27.837C23.7812 27.8806 23.5105 27.8894 23.2573 27.8894C17.7483 27.8894 12.2306 27.8981 6.72158 27.8894C4.36432 27.8894 2.53963 26.3528 2.14675 24.0479C2.09437 23.7598 2.09437 23.463 2.09437 23.1661C2.09437 20.4422 2.09437 17.7182 2.09437 14.9943C2.09437 12.2267 2.08564 9.45911 2.09437 6.69151C2.1031 4.36044 3.63969 2.54448 5.93583 2.15161C6.19775 2.10795 6.45967 2.09922 6.72158 2.09922C12.2306 2.09922 17.7483 2.09049 23.2573 2.09922C25.6233 2.09922 27.4305 3.62707 27.8321 5.94068C27.8758 6.19387 27.8845 6.46452 27.8845 6.7177C27.8845 12.2354 27.8845 17.7532 27.8758 23.2622ZM17.7047 10.0353C17.6872 10.1226 17.661 10.2711 17.6086 10.4107C16.5173 13.6934 15.426 16.9674 14.3347 20.2501C14.1251 20.8874 13.5664 21.193 12.9901 21.0009C12.4139 20.8176 12.1433 20.2327 12.3528 19.5953C13.4529 16.2952 14.5442 12.995 15.653 9.69483C15.8276 9.16227 16.3078 8.84797 16.7967 8.92654C17.3118 9.01385 17.7047 9.45911 17.7047 10.0353ZM8.09229 14.9856C8.95661 15.8499 9.79475 16.6706 10.6067 17.5174C10.7813 17.7008 10.9297 17.9627 10.9821 18.2159C11.0781 18.6611 10.8337 19.0715 10.4408 19.2723C10.0392 19.4818 9.57649 19.4207 9.23599 19.0889C8.68597 18.5477 8.13594 17.9976 7.59464 17.4476C7.04462 16.8976 6.50332 16.3563 5.95329 15.8062C5.44692 15.2911 5.43819 14.7062 5.94456 14.1998C7.01842 13.1172 8.10102 12.0434 9.18361 10.9608C9.6376 10.5068 10.2749 10.4893 10.7027 10.8997C11.1393 11.3187 11.1218 11.9735 10.6591 12.4362C9.81221 13.2831 8.96534 14.1212 8.09229 14.9856ZM24.0605 14.226C24.5233 14.6975 24.532 15.2999 24.0605 15.7626C22.9692 16.8626 21.8779 17.954 20.7778 19.0453C20.3238 19.4906 19.6778 19.4993 19.2587 19.0715C18.8396 18.6437 18.8571 18.0151 19.3111 17.5524C20.0794 16.7753 20.8477 16.007 21.616 15.2388C21.6945 15.1602 21.7644 15.0816 21.8517 14.9943C21.7731 14.907 21.6945 14.8284 21.6247 14.7498C20.8477 13.9728 20.0619 13.1958 19.2936 12.41C18.8484 11.9561 18.8484 11.31 19.2762 10.8909C19.6952 10.4893 20.3238 10.498 20.7691 10.9346C21.8779 12.0259 22.9692 13.126 24.0605 14.226Z" fill="#038CA9"/>
</svg>
