<svg width="30" height="30" viewBox="0 0 30 30" fill="none" xmlns="http://www.w3.org/2000/svg">
<path fill-rule="evenodd" clip-rule="evenodd" d="M18.4724 0.410236C24.2567 1.73471 28.7986 6.56964 29.7773 12.4184C29.848 12.8293 29.8987 13.2434 29.9495 13.6584C29.9661 13.794 29.9827 13.9296 30 14.0653V15.882C29.9774 16.054 29.9564 16.2259 29.9354 16.3977C29.8855 16.8056 29.8357 17.2126 29.7656 17.6167C29.4081 19.6796 28.6286 21.5843 27.4624 23.3249C27.0932 23.8816 26.3841 24.0164 25.839 23.6531C25.3057 23.3014 25.1534 22.5982 25.5226 22.0297C26.4661 20.5821 27.1694 19.0291 27.439 17.3178C28.2536 12.1782 26.5892 7.98203 22.481 4.81149C20.1192 2.99473 17.3823 2.23872 14.411 2.35593C8.60324 2.59035 3.62766 6.933 2.56691 12.6763C1.40066 18.9939 5.09279 25.1768 11.2112 27.0639C14.7627 28.1657 18.1735 27.7437 21.4026 25.9035C21.7074 25.7277 22.018 25.6046 22.3755 25.6808C22.856 25.7863 23.2194 26.1555 23.3014 26.6302C23.3893 27.1108 23.1725 27.5796 22.7271 27.8492C21.4847 28.6052 20.1602 29.1854 18.7478 29.5136C18.1539 29.6488 17.5485 29.7381 16.9417 29.8277C16.6803 29.8663 16.4186 29.9049 16.1575 29.9473C16.1194 29.9561 16.0827 29.9648 16.0461 29.9736C16.0095 29.9824 15.9728 29.9912 15.9348 30H14.0594C14.0264 29.9945 13.9922 29.9864 13.9572 29.9782C13.9176 29.9689 13.8772 29.9594 13.8367 29.9531C13.6253 29.9232 13.4133 29.8964 13.2014 29.8696C12.7081 29.8073 12.2147 29.745 11.7269 29.6425C5.90741 28.4177 1.19555 23.4772 0.22856 17.6167C0.17056 17.2494 0.122765 16.8795 0.0750746 16.5104C0.0504833 16.3201 0.02592 16.13 0 15.9406V14.0653C0.00624879 14.034 0.0132379 14.0035 0.020178 13.9732C0.0327644 13.9183 0.0451895 13.8641 0.0527447 13.8074C0.0859543 13.5827 0.114606 13.3574 0.143257 13.1321C0.20056 12.6815 0.257863 12.2309 0.351631 11.7855C1.56476 5.93671 6.50518 1.20141 12.3833 0.22856C12.7506 0.17056 13.1205 0.122765 13.4896 0.0750744C13.6799 0.0504831 13.87 0.0259199 14.0594 0H15.9348C16.0109 0.0175816 16.0871 0.0351631 16.1633 0.0468842C16.4016 0.0832587 16.6415 0.115118 16.8818 0.147016C17.4156 0.217904 17.951 0.288983 18.4724 0.410236ZM21.4495 15.0029C21.4495 15.6945 20.9221 16.175 20.1543 16.175H16.5149H16.1692C16.1692 16.6411 16.1705 17.1025 16.1718 17.5609C16.1744 18.4686 16.177 19.3642 16.1692 20.2598C16.1633 21.092 15.378 21.6488 14.6103 21.3792C14.1297 21.2092 13.8308 20.7697 13.8308 20.2188V16.5267V16.1692H13.5026C13.0842 16.1692 12.6663 16.1705 12.2489 16.1718C11.4154 16.1744 10.5837 16.177 9.7519 16.1692C8.90799 16.1633 8.35124 15.3956 8.61496 14.622C8.77906 14.1356 9.2186 13.8308 9.76362 13.8308H13.4851H13.8308V13.4909V9.82808C13.8308 9.0838 14.3114 8.56221 14.9912 8.55635C15.6886 8.55049 16.175 9.07794 16.175 9.83981V13.8308H16.4974H20.1602C20.9221 13.8308 21.4495 14.3114 21.4495 15.0029Z" fill="white"/>
</svg>
