<svg width="17" height="20" viewBox="0 0 17 20" fill="none" xmlns="http://www.w3.org/2000/svg">
<path d="M16.2555 4.15557C16.2555 3.16366 15.5925 2.50065 14.6006 2.50065C13.5565 2.50065 12.5176 2.50065 11.4735 2.50065C11.4056 2.50065 11.3326 2.50065 11.249 2.50065C11.249 2.30227 11.249 2.12999 11.249 1.95771C11.2438 0.809188 10.4398 0.00522057 9.29653 0C8.52911 0 7.76168 0 6.99426 0C5.79353 0 5 0.793527 5 1.99426C5 2.16132 5 2.32837 5 2.50065C4.91647 2.50065 4.86949 2.50065 4.81728 2.50065C3.7314 2.50065 2.6403 2.49543 1.55442 2.50065C0.693031 2.51109 0.009136 3.18977 0.00391543 4.05638C-0.00130514 4.77682 -0.00130514 5.50248 0.00391543 6.22292C0.00391543 6.60924 0.270164 6.87027 0.656487 6.87549C0.755677 6.87549 0.860089 6.87549 0.969721 6.87549C0.990603 7.35056 1.01149 7.79953 1.03237 8.24328C1.13156 10.3315 1.23075 12.4197 1.32994 14.5027C1.39259 15.7713 1.43957 17.0399 1.5231 18.3033C1.57009 18.9924 1.94075 19.4936 2.55677 19.8016C2.73427 19.8904 2.93265 19.9321 3.1206 20C6.45654 20 9.79248 20 13.1232 20C13.1545 19.9896 13.1806 19.9739 13.212 19.9635C14.0577 19.7964 14.6789 19.1334 14.7259 18.2824C14.8303 16.4761 14.9086 14.6698 14.9974 12.8583C15.0809 11.0937 15.1644 9.33438 15.248 7.56983C15.2584 7.34012 15.2741 7.10519 15.2897 6.86505C15.3785 6.86505 15.4516 6.86505 15.5194 6.86505C16.0154 6.86505 16.2503 6.6249 16.2503 6.13417C16.2555 5.48682 16.2608 4.81858 16.2555 4.15557ZM6.25816 1.83242C6.27382 1.51396 6.54007 1.25816 6.85852 1.25294C7.70426 1.24772 8.54999 1.24772 9.39572 1.25294C9.7194 1.25294 9.98042 1.51396 9.99609 1.83242C10.0065 2.04646 9.99609 2.26051 9.99609 2.49021C8.74837 2.49021 7.51109 2.49021 6.24772 2.49021C6.25294 2.26051 6.24772 2.04646 6.25816 1.83242ZM14.0264 7.09475C13.9428 8.88541 13.8541 10.6708 13.7706 12.4615C13.6975 13.9441 13.6296 15.4268 13.5617 16.9094C13.5461 17.2905 13.5304 17.6768 13.5095 18.0579C13.4782 18.5487 13.2485 18.7575 12.763 18.7575C9.68285 18.7575 6.60272 18.7575 3.52258 18.7575C3.00574 18.7575 2.77604 18.5539 2.74993 18.0423C2.68729 16.8572 2.63508 15.6774 2.58288 14.4923C2.48369 12.3989 2.3845 10.3054 2.2853 8.21196C2.26442 7.77865 2.24876 7.34012 2.22788 6.88593C6.17463 6.88593 10.0953 6.88593 14.0368 6.88593C14.0316 6.95902 14.0316 7.02689 14.0264 7.09475ZM15.0078 5.62255C10.4137 5.62255 5.84573 5.62255 1.26729 5.62255C1.26207 5.57557 1.25163 5.5338 1.25163 5.48682C1.25163 5.03785 1.25163 4.58888 1.25163 4.13991C1.25163 3.86322 1.36126 3.75359 1.64317 3.75359C1.66928 3.75359 1.69538 3.75359 1.72148 3.75359C5.99191 3.75359 10.2623 3.75359 14.5328 3.75359C14.9191 3.75359 15.0026 3.83712 15.0026 4.21822C15.0078 4.67763 15.0078 5.14226 15.0078 5.62255ZM5.62647 8.70269C5.63169 8.76011 5.63169 8.81754 5.63169 8.88019C5.63169 11.5061 5.63169 14.1269 5.63169 16.7528C5.63169 16.8363 5.63691 16.9251 5.61603 17.0034C5.55338 17.3166 5.25581 17.5359 4.94257 17.4993C4.62934 17.468 4.38397 17.207 4.38397 16.8781C4.37875 16.0898 4.38397 15.3015 4.38397 14.5132C4.38397 13.9441 4.38397 13.3803 4.38397 12.8113C4.38397 11.4696 4.38397 10.1279 4.38397 8.78622C4.38397 8.30593 4.80684 7.99791 5.2297 8.16497C5.46463 8.26416 5.59515 8.4521 5.62647 8.70269ZM8.75359 8.70269C8.75881 8.76011 8.75881 8.81754 8.75881 8.88019C8.75881 11.5061 8.75881 14.1269 8.75881 16.7528C8.75881 16.8363 8.76403 16.9251 8.74315 17.0034C8.6805 17.3166 8.38293 17.5307 8.0697 17.4993C7.75646 17.468 7.51109 17.207 7.51109 16.8781C7.50587 16.0794 7.51109 15.2754 7.51109 14.4766C7.51109 13.9233 7.51109 13.3699 7.51109 12.8165C7.51109 11.4748 7.51109 10.1331 7.51109 8.79144C7.51109 8.31115 7.93396 8.00313 8.35683 8.17019C8.59175 8.26416 8.72227 8.4521 8.75359 8.70269ZM11.8807 12.8165C11.8807 14.1582 11.8807 15.4999 11.8807 16.8416C11.8807 17.1235 11.7606 17.3323 11.5048 17.4524C11.2595 17.562 11.035 17.515 10.8366 17.3375C10.68 17.1966 10.6278 17.0191 10.633 16.8102C10.6382 15.7505 10.633 14.6855 10.633 13.6257C10.633 12.0177 10.633 10.4098 10.633 8.80188C10.633 8.31115 11.0611 8.00313 11.4892 8.17541C11.7398 8.2746 11.8807 8.50431 11.8807 8.81232C11.8807 10.1488 11.8807 11.4853 11.8807 12.8165Z" fill="#038CA9"/>
</svg>
