<svg width="49" height="61" viewBox="0 0 49 61" fill="none" xmlns="http://www.w3.org/2000/svg">
<path d="M48.2119 53.5503C48.2119 52.9241 47.8374 52.5328 47.3224 52.5328C46.8074 52.5485 46.4797 52.9398 46.4641 53.5816C46.4641 54.239 46.4641 54.9121 46.4641 55.5696C46.4641 57.4637 45.4342 58.4968 43.5304 58.4968C30.828 58.4968 18.1412 58.4968 5.43882 58.4968C3.55062 58.4968 2.5363 57.4637 2.5363 55.5539C2.5363 38.6794 2.5363 21.8049 2.5363 4.93041C2.5363 3.03633 3.56623 2.0032 5.47003 2.0032C12.0865 2.0032 18.7186 2.0032 25.3351 2.0032C28.3936 2.0032 31.4522 2.0032 34.5108 2.0032C35.4002 2.0032 35.4002 2.0032 35.4002 2.87979C35.4002 5.16521 35.4002 7.45063 35.4002 9.73604C35.4002 11.8649 36.6486 13.1172 38.7865 13.1172C41.0336 13.1172 43.2651 13.1172 45.5122 13.1172C46.4953 13.1172 46.4797 12.8981 46.4797 14.0877C46.4797 25.6557 46.4797 37.208 46.4797 48.776C46.4797 48.9951 46.4641 49.2143 46.4953 49.4178C46.5734 49.8717 46.8699 50.1535 47.338 50.1691C47.8062 50.1848 48.1026 49.903 48.2119 49.4491C48.2431 49.3082 48.2275 49.136 48.2275 48.9795C48.2275 37.255 48.2275 25.5461 48.2275 13.8216C48.2275 12.5224 47.7906 11.4266 46.8699 10.5031C43.8893 7.52889 40.9244 4.53907 37.9439 1.5649C37.0544 0.672645 35.9776 0.25 34.7292 0.25C24.8981 0.25 15.067 0.25 5.22035 0.265654C4.76781 0.265654 4.28405 0.328268 3.84712 0.46915C1.94332 1.01702 0.772949 2.69195 0.772949 4.80518C0.772949 21.7736 0.772949 38.7577 0.772949 55.7261C0.772949 55.82 0.772949 55.914 0.772949 56.0235C0.819764 57.8863 2.02134 59.483 3.8003 60.0622C4.00317 60.1248 4.19043 60.203 4.39329 60.2657C17.7979 60.2657 31.1869 60.2657 44.5915 60.2657C44.81 60.1874 45.0285 60.1091 45.247 60.0309C46.9635 59.4673 48.1495 57.8863 48.2119 56.0705C48.2275 55.2252 48.2119 54.3956 48.2119 53.5503ZM37.148 3.80335C37.148 3.67812 37.148 3.5529 37.148 3.44332C39.7696 6.08877 42.3913 8.70291 44.9973 11.3484C44.9036 11.3484 44.732 11.3484 44.5603 11.3484C42.6097 11.3484 40.6591 11.3484 38.7241 11.3484C37.6318 11.3484 37.148 10.8631 37.148 9.783C37.1324 7.795 37.148 5.80701 37.148 3.80335ZM8.32573 15.9035C8.32573 15.2461 7.99802 14.8861 7.45185 14.8861C6.90568 14.8861 6.59358 15.2304 6.57798 15.9035C6.57798 15.9662 6.57798 16.0131 6.57798 16.0757C6.57798 18.5177 6.57798 20.9596 6.57798 23.4016C6.57798 25.3583 7.76395 26.5166 9.73017 26.5166C12.976 26.5166 16.2374 26.5166 19.4832 26.5166C21.4807 26.5166 22.6354 25.3426 22.6354 23.3546C22.6354 19.269 22.6354 15.1991 22.6354 11.1136C22.6354 9.07859 21.4651 7.92023 19.452 7.90458C16.2374 7.90458 13.0228 7.93589 9.80819 7.88893C7.9356 7.85762 6.25027 9.06294 6.59358 11.7553C6.656 12.2093 6.93689 12.4598 7.37383 12.4911C7.84197 12.5224 8.16968 12.3032 8.27891 11.8336C8.34133 11.5832 8.32573 11.3327 8.32573 11.0822C8.34133 10.0648 8.73145 9.65777 9.74577 9.65777C12.9916 9.65777 16.253 9.65777 19.4988 9.65777C20.482 9.65777 20.8877 10.0804 20.8877 11.0509C20.8877 14.213 20.8877 17.375 20.8877 20.537C20.8877 20.6779 20.8565 20.8187 20.8409 20.897C19.9358 20.2396 19.0307 19.5978 18.0944 18.9247C19.0619 16.7332 18.781 14.9017 17.2673 13.6025C15.8941 12.4285 13.8967 12.3032 12.383 13.2894C11.634 13.7903 11.0878 14.4634 10.7757 15.3244C10.3076 16.6079 10.5104 17.8446 11.1346 18.9247C10.1671 19.6134 9.27763 20.2709 8.32573 20.944C8.32573 20.7248 8.32573 20.5213 8.32573 20.3178C8.32573 18.8307 8.34133 17.3593 8.32573 15.9035ZM14.5989 14.3538C15.8785 14.3538 16.924 15.387 16.9396 16.6862C16.9396 17.9855 15.9253 19.0186 14.6301 19.0342C13.3349 19.0342 12.2894 18.0011 12.2894 16.7175C12.2738 15.4339 13.3193 14.3695 14.5989 14.3538ZM8.65343 23.7146C9.46489 22.1806 10.6353 21.0849 12.2582 20.49C12.4766 20.4118 12.7887 20.4118 13.0228 20.49C14.0683 20.8814 15.0983 20.8657 16.1594 20.5057C16.4091 20.4118 16.7368 20.4118 16.9708 20.5057C18.5626 21.1005 19.7329 22.1963 20.5288 23.699C20.8097 24.2156 20.6224 24.466 20.1855 24.6382C19.9826 24.7165 19.7329 24.7478 19.4988 24.7478C17.8447 24.7634 16.1906 24.7478 14.5365 24.7478C12.9292 24.7478 11.3063 24.7478 9.69896 24.7478C9.44928 24.7478 9.184 24.7165 8.96553 24.6226C8.57541 24.4504 8.40375 24.1999 8.65343 23.7146ZM7.96681 32.2615C19.0151 32.2615 30.0478 32.2615 41.096 32.2615C41.3301 32.2615 41.5642 32.2615 41.7827 32.3241C42.2352 32.465 42.4537 32.7937 42.3913 33.2633C42.3444 33.7016 42.0635 33.9677 41.6266 34.0147C41.4394 34.046 41.2365 34.0303 41.0492 34.0303C35.5407 34.0303 30.0322 34.0303 24.5236 34.0303C19.0151 34.0303 13.5066 34.0303 7.99802 34.0303C7.81076 34.0303 7.6079 34.046 7.42064 34.0147C6.9837 33.9521 6.656 33.639 6.70282 33.232C6.73403 32.9189 6.99931 32.5902 7.24899 32.3711C7.38943 32.2145 7.71714 32.2615 7.96681 32.2615ZM6.6404 39.2117C6.6404 38.6168 7.06173 38.3351 7.95121 38.3351C13.4597 38.3351 18.9683 38.3351 24.4768 38.3351C29.9853 38.3351 35.4939 38.3351 41.0024 38.3351C41.1897 38.3351 41.3925 38.3194 41.5798 38.3507C42.0635 38.4133 42.36 38.7107 42.36 39.2117C42.36 39.7282 42.0635 39.9943 41.5954 40.0882C41.4237 40.1196 41.2521 40.1039 41.0648 40.1039C30.0166 40.1039 18.9839 40.1039 7.9356 40.1039C7.09294 40.0882 6.656 39.8065 6.6404 39.2117ZM41.096 46.1618C30.0634 46.1618 19.0151 46.1618 7.98242 46.1618C7.92 46.1618 7.87318 46.1618 7.81076 46.1618C7.09294 46.1462 6.67161 45.8174 6.656 45.2696C6.656 44.7217 7.06173 44.393 7.79516 44.393C13.3817 44.393 18.9683 44.393 24.5548 44.393C30.0478 44.393 35.5407 44.393 41.0336 44.393C41.2521 44.393 41.4706 44.3773 41.6734 44.4086C42.0792 44.4712 42.3444 44.7217 42.3913 45.1443C42.4381 45.5826 42.2664 45.927 41.8451 46.0679C41.611 46.1618 41.3457 46.1618 41.096 46.1618ZM25.3195 51.3901C25.3975 51.7814 25.1166 52.0945 24.6953 52.1884C24.4768 52.2354 24.2271 52.2354 23.9931 52.2354C21.309 52.2354 18.625 52.2354 15.9409 52.2354C13.2725 52.2354 10.604 52.2354 7.95121 52.2354C7.73274 52.2354 7.51427 52.2354 7.31141 52.2041C6.87447 52.1102 6.59358 51.7814 6.67161 51.3744C6.73403 51.077 7.03052 50.7796 7.2802 50.5605C7.38943 50.4509 7.65472 50.4978 7.84197 50.4978C13.2725 50.4978 18.6874 50.4978 24.1179 50.4978C24.3364 50.4978 24.6173 50.4665 24.7421 50.5761C25.0074 50.764 25.2571 51.077 25.3195 51.3901ZM42.3913 18.0794C42.4069 18.6586 42.0167 18.9873 41.2989 19.0029C37.2884 19.0029 33.2936 19.0029 29.2831 19.0029C28.5653 19.0029 28.1596 18.6429 28.1752 18.095C28.1908 17.5472 28.5809 17.2497 29.2831 17.2497C31.2806 17.2497 33.2936 17.2497 35.291 17.2497C37.2884 17.2497 39.3015 17.2497 41.2989 17.2497C42.0167 17.2341 42.3756 17.5159 42.3913 18.0794ZM28.8774 23.7146C28.4093 23.6207 28.1752 23.292 28.1908 22.8381C28.2064 22.3684 28.4717 22.0867 28.9554 22.0241C29.1427 21.9928 29.3455 22.0084 29.5328 22.0084C31.4366 22.0084 33.3404 22.0084 35.2442 22.0084C37.2104 22.0084 39.1766 22.0084 41.1273 22.0084C41.3145 22.0084 41.5174 22.0084 41.7046 22.0397C42.1416 22.118 42.3756 22.4154 42.3913 22.8537C42.4069 23.292 42.1884 23.6051 41.7515 23.699C41.533 23.746 41.2833 23.746 41.0492 23.746C37.1948 23.746 33.356 23.746 29.5016 23.746C29.2987 23.7616 29.0803 23.746 28.8774 23.7146Z" fill="#868F90"/>
</svg>
