<svg width="18" height="15" viewBox="0 0 18 15" fill="none" xmlns="http://www.w3.org/2000/svg">
<path d="M17.9914 11.9227C17.987 13.2909 17.1012 14.3959 15.7769 14.6853C15.5708 14.7292 15.3559 14.7467 15.1411 14.7467C12.8389 14.7511 10.5324 14.7511 8.23019 14.7467C6.80065 14.7423 5.67368 13.8083 5.42812 12.4051C5.37111 12.0762 5.38865 11.7298 5.38427 11.3921C5.37988 11.1246 5.37988 10.8571 5.38427 10.5897C5.38865 10.1555 5.69122 9.84419 6.09904 9.85296C6.49369 9.85734 6.78749 10.1687 6.78749 10.594C6.78749 11.0282 6.78749 11.4579 6.78749 11.892C6.79188 12.7559 7.38825 13.3523 8.2565 13.3566C9.58518 13.361 10.9139 13.3566 12.2469 13.3566C13.2116 13.3566 14.172 13.361 15.1367 13.3566C15.8471 13.3523 16.3996 12.9313 16.5531 12.2735C16.5838 12.1376 16.5969 11.9929 16.5969 11.8526C16.6013 9.12065 16.6013 6.39313 16.5969 3.66122C16.5969 2.74036 16.0093 2.14837 15.0928 2.14837C12.8258 2.14837 10.563 2.14837 8.29596 2.14837C7.37509 2.14837 6.78749 2.73597 6.78749 3.65684C6.78749 4.07342 6.78749 4.49 6.78749 4.9022C6.78749 5.33633 6.48931 5.65205 6.08588 5.64767C5.68684 5.64767 5.38865 5.34071 5.38427 4.91536C5.38427 4.35845 5.37111 3.79716 5.41058 3.24464C5.50705 1.9335 6.68225 0.806535 7.99778 0.762684C8.66431 0.740759 9.33084 0.753914 10.0018 0.753914C11.7207 0.753914 13.4397 0.749529 15.1586 0.753914C16.5355 0.758299 17.645 1.64409 17.9344 2.97277C17.9826 3.1964 17.9914 3.42881 17.9958 3.65684C18.0001 5.02498 18.0001 6.39313 18.0001 7.76128C17.9914 9.14696 17.9958 10.537 17.9914 11.9227ZM2.92862 8.59006C2.89354 8.55498 2.85846 8.51551 2.79707 8.44973C2.88915 8.44973 2.95055 8.44973 3.00755 8.44973C4.29238 8.44973 5.5816 8.44973 6.86643 8.44973C7.52419 8.44973 8.18195 8.45412 8.83533 8.44535C9.17736 8.44096 9.45801 8.17347 9.49309 7.84898C9.53255 7.4894 9.33523 7.17367 8.99319 7.08159C8.89672 7.05528 8.78709 7.05528 8.68623 7.05528C6.79188 7.05528 4.89752 7.05528 3.00755 7.05528C2.95055 7.05528 2.89354 7.05528 2.79707 7.05528C2.85846 6.9895 2.89354 6.95004 2.92862 6.91057C3.17857 6.66062 3.43291 6.41067 3.68285 6.15634C3.96789 5.86253 3.97227 5.4328 3.69601 5.15654C3.41975 4.88028 2.98563 4.88028 2.69621 5.16969C1.99898 5.85815 1.30614 6.55099 0.617682 7.24822C0.319497 7.54641 0.319497 7.9586 0.617682 8.26117C1.30614 8.9584 1.99898 9.65125 2.69621 10.3397C2.98563 10.6291 3.41975 10.6291 3.69601 10.3529C3.97227 10.0766 3.97227 9.64686 3.68285 9.35306C3.43291 9.08996 3.17857 8.84001 2.92862 8.59006Z" fill="#038CA9"/>
</svg>
