<svg width="11" height="11" viewBox="0 0 11 11" fill="none" xmlns="http://www.w3.org/2000/svg">
<path d="M10.6098 6.40247C10.0985 5.36594 9.40099 4.47392 8.45895 3.80142C6.70546 2.55092 4.83805 2.38419 2.90394 3.35402C1.81462 3.89868 1.01707 4.76848 0.377929 5.79111C0.241764 6.01064 0.12505 6.24129 0 6.46916C0 6.48305 0 6.49695 0 6.51084C0.0277889 6.55808 0.0555778 6.60532 0.0805879 6.65257C0.616914 7.70577 1.33943 8.60613 2.32037 9.27028C3.95714 10.3791 5.70506 10.5625 7.50579 9.73991C8.93414 9.08965 9.90953 7.95587 10.6098 6.57476C10.6404 6.51362 10.6404 6.4636 10.6098 6.40247ZM9.67888 6.55808C9.15089 7.45289 8.48396 8.2143 7.59193 8.76174C6.89721 9.18691 6.13857 9.39811 5.32158 9.40089C4.17112 9.39533 3.18183 8.97572 2.32315 8.22542C1.77849 7.74745 1.33387 7.18889 0.969833 6.56364C0.942044 6.5164 0.92815 6.4775 0.961497 6.42192C1.53951 5.44097 2.27591 4.6212 3.29021 4.07931C4.02661 3.68471 4.81582 3.52909 5.64671 3.59023C6.77216 3.67359 7.70864 4.16268 8.51174 4.92965C8.96748 5.36594 9.34819 5.86336 9.66498 6.40802C9.70111 6.45804 9.71222 6.49973 9.67888 6.55808ZM2.67329 2.73155C2.39263 2.24524 2.12029 1.77283 1.84241 1.29208C2.08139 1.15314 2.3176 1.01697 2.56214 0.875251C2.84003 1.35878 3.11514 1.83119 3.39303 2.31472C3.15404 2.45644 2.91784 2.59261 2.67329 2.73155ZM7.96986 2.73155C7.7281 2.59261 7.49467 2.45644 7.25013 2.31472C7.52524 1.83675 7.80035 1.36156 8.08102 0.875251C8.32 1.0142 8.55621 1.14758 8.80075 1.28931C8.52564 1.77005 8.25331 2.24524 7.96986 2.73155ZM5.73007 1.90344C5.46052 1.90344 5.18819 1.90344 4.91586 1.90344C4.91586 1.35044 4.91586 0.80022 4.91586 0.25C5.19097 0.25 5.45774 0.25 5.73007 0.25C5.73007 0.80022 5.73007 1.35044 5.73007 1.90344ZM5.33269 4.40722C4.18223 4.40444 3.24575 5.33537 3.24297 6.48305C3.24019 7.62796 4.17112 8.56444 5.31324 8.56722C6.4637 8.57278 7.40019 7.63907 7.40297 6.49139C7.40297 5.34649 6.47482 4.41278 5.33269 4.40722ZM5.32158 7.73633C4.63519 7.73633 4.07385 7.17222 4.07385 6.48583C4.07385 5.79945 4.64075 5.23811 5.32714 5.24089C6.00796 5.24367 6.5693 5.805 6.5693 6.48583C6.57208 7.17222 6.00796 7.73633 5.32158 7.73633Z" fill="#868F90"/>
</svg>
