<svg width="22" height="21" viewBox="0 0 22 21" fill="none" xmlns="http://www.w3.org/2000/svg">
<path d="M21.2196 12.8049C20.197 10.7319 18.802 8.94783 16.9179 7.60285C13.4109 5.10184 9.6761 4.76838 5.80788 6.70804C3.62923 7.79737 2.03415 9.53695 0.755858 11.5822C0.483527 12.0213 0.2501 12.4826 0 12.9383C0 12.9661 0 12.9939 0 13.0217C0.0555778 13.1162 0.111156 13.2106 0.161176 13.3051C1.23383 15.4115 2.67885 17.2123 4.64075 18.5406C7.91428 20.7581 11.4101 21.1249 15.0116 19.4798C17.8683 18.1793 19.8191 15.9117 21.2196 13.1495C21.2808 13.0272 21.2808 12.9272 21.2196 12.8049ZM19.3578 13.1162C18.3018 14.9058 16.9679 16.4286 15.1839 17.5235C13.7944 18.3738 12.2771 18.7962 10.6432 18.8018C8.34223 18.7907 6.36366 17.9514 4.64631 16.4508C3.55698 15.4949 2.66774 14.3778 1.93967 13.1273C1.88409 13.0328 1.8563 12.955 1.92299 12.8438C3.07901 10.8819 4.55182 9.24239 6.58042 8.15863C8.05323 7.36942 9.63164 7.05818 11.2934 7.18045C13.5443 7.34719 15.4173 8.32536 17.0235 9.85931C17.935 10.7319 18.6964 11.7267 19.33 12.816C19.4022 12.9161 19.4244 12.9995 19.3578 13.1162ZM5.34659 5.4631C4.78525 4.49049 4.24059 3.54567 3.68481 2.58417C4.16278 2.30628 4.63519 2.03395 5.12428 1.7505C5.68005 2.71756 6.23027 3.66238 6.78605 4.62943C6.30808 4.91288 5.83567 5.18521 5.34659 5.4631ZM15.9397 5.4631C15.4562 5.18521 14.9893 4.91288 14.5003 4.62943C15.0505 3.67349 15.6007 2.72311 16.162 1.7505C16.64 2.02839 17.1124 2.29516 17.6015 2.57861C17.0513 3.54011 16.5066 4.49049 15.9397 5.4631ZM11.4601 3.80688C10.921 3.80688 10.3764 3.80688 9.83172 3.80688C9.83172 2.70088 9.83172 1.60044 9.83172 0.5C10.3819 0.5 10.9155 0.5 11.4601 0.5C11.4601 1.60044 11.4601 2.70088 11.4601 3.80688ZM10.6654 8.81444C8.36446 8.80889 6.49149 10.6707 6.48593 12.9661C6.48038 15.2559 8.34223 17.1289 10.6265 17.1344C12.9274 17.1456 14.8004 15.2781 14.8059 12.9828C14.8059 10.693 12.9496 8.82556 10.6654 8.81444ZM10.6432 15.4727C9.27038 15.4727 8.14771 14.3444 8.14771 12.9717C8.14771 11.5989 9.2815 10.4762 10.6543 10.4818C12.0159 10.4873 13.1386 11.61 13.1386 12.9717C13.1442 14.3444 12.0159 15.4727 10.6432 15.4727Z" fill="#038CA9"/>
</svg>
