<svg width="12" height="11" viewBox="0 0 12 11" fill="none" xmlns="http://www.w3.org/2000/svg">
<path d="M2.46263 9.40138C2.50781 9.13632 2.55299 8.87126 2.59817 8.60319C2.69757 8.01585 2.79998 7.4255 2.90239 6.83815C2.92046 6.73574 2.89636 6.66346 2.82106 6.58816C2.23372 6.0219 1.6524 5.45262 1.06807 4.88034C0.775903 4.5942 0.718675 4.17553 0.923492 3.83818C1.06204 3.60927 1.26686 3.47373 1.53192 3.43457C2.34516 3.31409 3.15841 3.19662 3.97165 3.07916C4.07105 3.0641 4.12225 3.02193 4.16442 2.93458C4.52285 2.19965 4.88429 1.46472 5.24875 0.732795C5.48971 0.256897 6.06802 0.100272 6.49271 0.41051C6.61018 0.497858 6.7156 0.627375 6.78186 0.759903C7.14933 1.47978 7.50174 2.20266 7.85715 2.92856C7.90233 3.02494 7.96257 3.06711 8.06799 3.08217C8.87521 3.19662 9.67942 3.31409 10.4866 3.43457C10.83 3.48578 11.068 3.67554 11.1764 4.00385C11.2878 4.33215 11.2125 4.63034 10.9656 4.87432C10.3933 5.44058 9.81798 6.00081 9.23666 6.55803C9.13425 6.65442 9.10413 6.74478 9.13124 6.88333C9.2728 7.66646 9.40232 8.45259 9.53786 9.23572C9.5981 9.58812 9.48665 9.88029 9.20051 10.0851C8.91136 10.2929 8.60112 10.299 8.28787 10.1333C7.58005 9.75981 6.87222 9.38933 6.16741 9.01584C6.065 8.96162 5.98067 8.9556 5.87525 9.01283C5.1614 9.39535 4.44153 9.77186 3.72467 10.1453C3.23672 10.3984 2.67046 10.1634 2.51685 9.64836C2.48673 9.57005 2.47769 9.48571 2.46263 9.40138ZM3.19756 9.38029C3.18853 9.49475 3.27588 9.55499 3.38732 9.50379C3.41142 9.49174 3.43551 9.47969 3.4566 9.46764C4.16141 9.09716 4.86622 8.7297 5.56802 8.35621C5.87223 8.19356 6.16741 8.19958 6.46861 8.36223C7.17945 8.74175 7.89631 9.11524 8.61016 9.48571C8.65534 9.50981 8.73666 9.52186 8.77281 9.49475C8.80895 9.47065 8.83004 9.38933 8.821 9.34114C8.69148 8.55199 8.55895 7.76284 8.41438 6.97671C8.34811 6.61526 8.43546 6.3231 8.70353 6.07009C9.27882 5.51889 9.8481 4.96167 10.4144 4.40143C10.4535 4.36228 10.5017 4.28095 10.4836 4.24481C10.4625 4.19661 10.3872 4.15445 10.33 4.14541C9.58906 4.03397 8.84509 3.91348 8.10113 3.82614C7.64631 3.77192 7.3421 3.57614 7.15234 3.15144C6.90234 2.59422 6.6162 2.05206 6.34512 1.50387C6.27283 1.35628 6.20054 1.20568 6.12524 1.06111C6.065 0.952673 5.9626 0.952673 5.89934 1.06111C5.88428 1.08821 5.87223 1.11532 5.85717 1.14243C5.50778 1.84724 5.15538 2.55507 4.80899 3.26891C4.65538 3.58216 4.41141 3.75084 4.06804 3.79903C3.27588 3.90746 2.48372 4.02493 1.69457 4.14541C1.63734 4.15445 1.56204 4.19661 1.54096 4.24481C1.5259 4.28095 1.57108 4.36228 1.61324 4.40143C1.76987 4.56408 1.93553 4.71769 2.09517 4.87432C2.51082 5.28094 2.92648 5.69057 3.34515 6.09418C3.58009 6.32009 3.67346 6.59117 3.61925 6.91044C3.54395 7.36526 3.46262 7.82007 3.38431 8.27488C3.32106 8.64235 3.26082 9.00982 3.19756 9.38029Z" fill="#868F90"/>
</svg>
