<svg width="32" height="30" viewBox="0 0 32 30" fill="none" xmlns="http://www.w3.org/2000/svg">
<path d="M4.98262 27.4541C5.11816 26.659 5.25371 25.8638 5.38925 25.0596C5.68744 23.2976 5.99466 21.5265 6.30189 19.7645C6.3561 19.4572 6.28382 19.2404 6.05791 19.0145C4.29588 17.3157 2.55193 15.6079 0.798933 13.891C-0.0775633 13.0326 -0.249248 11.7766 0.365203 10.7646C0.780861 10.0778 1.39531 9.67119 2.19049 9.55372C4.63022 9.19228 7.06995 8.83987 9.50968 8.48747C9.80787 8.44229 9.96149 8.31578 10.088 8.05374C11.1633 5.84894 12.2476 3.64415 13.341 1.44839C14.0639 0.0206902 15.7988 -0.449184 17.0729 0.481529C17.4253 0.743574 17.7415 1.13212 17.9403 1.52971C19.0427 3.68933 20.0999 5.85798 21.1662 8.03567C21.3017 8.32482 21.4825 8.45132 21.7987 8.4965C24.2204 8.83987 26.633 9.19228 29.0547 9.55372C30.0848 9.70733 30.7986 10.2766 31.1239 11.2615C31.4582 12.2465 31.2323 13.141 30.4914 13.873C28.7745 15.5717 27.0487 17.2524 25.3047 18.9241C24.9975 19.2133 24.9071 19.4843 24.9884 19.9C25.4131 22.2494 25.8017 24.6078 26.2083 26.9572C26.389 28.0144 26.0547 28.8909 25.1963 29.5053C24.3288 30.1288 23.3981 30.1469 22.4583 29.6499C20.3349 28.5294 18.2114 27.418 16.097 26.2975C15.7897 26.1349 15.5367 26.1168 15.2205 26.2885C13.0789 27.4361 10.9193 28.5656 8.76873 29.686C7.30489 30.4451 5.60611 29.7403 5.14527 28.1951C5.05491 27.9602 5.0278 27.7071 4.98262 27.4541ZM7.18742 27.3909C7.16031 27.7343 7.42236 27.915 7.75669 27.7614C7.82898 27.7252 7.90127 27.6891 7.96452 27.6529C10.079 26.5415 12.1934 25.4391 14.2988 24.3186C15.2114 23.8307 16.097 23.8487 17.0006 24.3367C19.1331 25.4752 21.2837 26.5957 23.4252 27.7071C23.5607 27.7794 23.8047 27.8156 23.9131 27.7343C24.0216 27.662 24.0848 27.418 24.0577 27.2734C23.6692 24.906 23.2716 22.5385 22.8379 20.1801C22.6391 19.0958 22.9011 18.2193 23.7053 17.4603C25.4312 15.8067 27.139 14.135 28.8378 12.4543C28.9553 12.3368 29.0998 12.0929 29.0456 11.9844C28.9824 11.8398 28.7565 11.7133 28.5848 11.6862C26.3619 11.3519 24.13 10.9905 21.8981 10.7284C20.5337 10.5658 19.621 9.97842 19.0518 8.70433C18.3018 7.03266 17.4433 5.40618 16.6301 3.76161C16.4132 3.31885 16.1964 2.86705 15.9705 2.43332C15.7897 2.10802 15.4825 2.10802 15.2928 2.43332C15.2476 2.51464 15.2114 2.59596 15.1663 2.67729C14.1181 4.79172 13.0609 6.9152 12.0217 9.05674C11.5609 9.99649 10.8289 10.5025 9.79884 10.6471C7.42236 10.9724 5.04588 11.3248 2.67843 11.6862C2.50675 11.7133 2.28085 11.8398 2.21759 11.9844C2.17241 12.0929 2.30795 12.3368 2.43446 12.4543C2.90433 12.9422 3.40132 13.4031 3.88023 13.873C5.1272 15.0928 6.37418 16.3217 7.63019 17.5326C8.335 18.2103 8.61512 19.0235 8.45247 19.9813C8.22657 21.3458 7.98259 22.7102 7.74766 24.0747C7.5579 25.177 7.37718 26.2794 7.18742 27.3909Z" fill="white"/>
</svg>
