<svg width="21" height="20" viewBox="0 0 21 20" fill="none" xmlns="http://www.w3.org/2000/svg">
<path d="M3.32175 18.3028C3.41211 17.7726 3.50247 17.2425 3.59283 16.7064C3.79162 15.5317 3.99644 14.351 4.20126 13.1763C4.2374 12.9715 4.18921 12.8269 4.03861 12.6763C2.86392 11.5438 1.70128 10.4052 0.532622 9.26068C-0.0517089 8.6884 -0.166166 7.85106 0.243469 7.17637C0.520574 6.71854 0.930208 6.44746 1.46032 6.36915C3.08681 6.12819 4.7133 5.89325 6.33979 5.65831C6.53858 5.62819 6.64099 5.54386 6.72533 5.36916C7.44219 3.89929 8.16507 2.42943 8.89398 0.965591C9.3759 0.0137935 10.5325 -0.299456 11.3819 0.321019C11.6168 0.495716 11.8277 0.75475 11.9602 1.01981C12.6951 2.45955 13.4 3.90532 14.1108 5.35711C14.2012 5.54988 14.3216 5.63422 14.5325 5.66434C16.1469 5.89325 17.7553 6.12819 19.3698 6.36915C20.0565 6.47156 20.5324 6.85107 20.7493 7.50769C20.9722 8.16431 20.8216 8.76069 20.3276 9.24864C19.183 10.3812 18.0324 11.5016 16.8698 12.6161C16.665 12.8088 16.6047 12.9896 16.659 13.2667C16.9421 14.8329 17.2011 16.4052 17.4722 17.9714C17.5927 18.6762 17.3698 19.2606 16.7975 19.6702C16.2192 20.0859 15.5987 20.0979 14.9722 19.7666C13.5566 19.0196 12.1409 18.2787 10.7313 17.5317C10.5265 17.4232 10.3578 17.4112 10.147 17.5257C8.71928 18.2907 7.27954 19.0437 5.84582 19.7907C4.86993 20.2967 3.73741 19.8268 3.43018 18.7967C3.36994 18.6401 3.35187 18.4714 3.32175 18.3028ZM4.79161 18.2606C4.77354 18.4895 4.94824 18.61 5.17113 18.5076C5.21932 18.4835 5.26751 18.4594 5.30968 18.4353C6.7193 17.6943 8.12893 16.9594 9.53253 16.2124C10.141 15.8871 10.7313 15.8992 11.3337 16.2245C12.7554 16.9835 14.1891 17.7305 15.6168 18.4714C15.7072 18.5196 15.8698 18.5437 15.9421 18.4895C16.0144 18.4413 16.0566 18.2787 16.0385 18.1823C15.7794 16.604 15.5144 15.0257 15.2252 13.4534C15.0927 12.7305 15.2674 12.1462 15.8035 11.6402C16.9541 10.5378 18.0927 9.42333 19.2252 8.30286C19.3035 8.22455 19.3999 8.0619 19.3637 7.98961C19.3216 7.89323 19.171 7.80889 19.0565 7.79082C17.5746 7.56793 16.0867 7.32697 14.5987 7.15227C13.6891 7.04384 13.0807 6.65228 12.7012 5.80289C12.2012 4.68844 11.6289 3.60412 11.0867 2.50774C10.9422 2.21257 10.7976 1.91136 10.647 1.62221C10.5265 1.40535 10.3217 1.40535 10.1952 1.62221C10.1651 1.67643 10.141 1.73064 10.1108 1.78486C9.41205 3.19448 8.70723 4.61013 8.01447 6.03783C7.70724 6.66433 7.2193 7.00167 6.53256 7.09806C4.94824 7.31492 3.36392 7.54986 1.78562 7.79082C1.67116 7.80889 1.52056 7.89323 1.4784 7.98961C1.44828 8.0619 1.53864 8.22455 1.62297 8.30286C1.93622 8.62816 2.26754 8.93539 2.58682 9.24864C3.41813 10.0619 4.24945 10.8811 5.08679 11.6884C5.55667 12.1402 5.74341 12.6823 5.63498 13.3209C5.48438 14.2305 5.32173 15.1401 5.1651 16.0498C5.0386 16.7847 4.91812 17.5196 4.79161 18.2606Z" fill="#D5DEDE"/>
</svg>
