<svg width="11" height="11" viewBox="0 0 11 11" fill="none" xmlns="http://www.w3.org/2000/svg">
<path d="M0.5 5.84265C0.531784 5.65195 0.55827 5.45859 0.595351 5.26789C0.658919 4.95005 0.772811 4.64811 0.923784 4.35941C1.42438 3.40059 1.80049 2.39941 2.03357 1.33995C2.14746 0.815513 2.59243 0.479135 3.12481 0.487081C3.6307 0.495027 4.06508 0.86054 4.15249 1.37703C4.17897 1.53065 4.16573 1.70281 4.13395 1.85643C4.04654 2.26962 3.93795 2.67751 3.83995 3.08805C3.83465 3.10659 3.832 3.12513 3.82935 3.14368C3.84259 3.15427 3.85584 3.16751 3.86908 3.17811C3.88497 3.14632 3.89292 3.10659 3.91676 3.08276C4.74843 2.24843 5.59335 1.42205 6.41443 0.577135C6.92827 0.0474049 7.79173 0.17454 8.08838 0.86054C8.09103 0.868486 8.09897 0.876432 8.10692 0.889675C8.47773 0.709567 8.8406 0.706918 9.18227 0.953243C9.51865 1.19427 9.64843 1.5333 9.59281 1.94649C9.62195 1.95708 9.64843 1.96768 9.67757 1.97562C10.4007 2.19016 10.6417 3.07746 10.1225 3.62308C9.99011 3.76346 9.84708 3.89589 9.7067 4.03097C9.8047 4.09719 9.89476 4.14751 9.96892 4.21108C10.4112 4.58719 10.4298 5.2467 10.0139 5.67049C9.63254 6.05719 9.24584 6.43595 8.86443 6.82C8.20227 7.47951 7.54805 8.14962 6.8753 8.79854C6.04097 9.60373 5.03184 9.94541 3.87968 9.84211C2.21897 9.69643 0.83373 8.39595 0.555622 6.74054C0.534432 6.62135 0.518541 6.49951 0.5 6.38032C0.5 6.20022 0.5 6.02276 0.5 5.84265ZM1.0933 6.09957C1.11978 6.31411 1.13568 6.53395 1.17541 6.74584C1.44557 8.14962 2.73811 9.22762 4.16573 9.25411C5.08481 9.27 5.87146 8.95216 6.52038 8.30324C7.14281 7.68346 7.7626 7.06103 8.38503 6.44124C8.78233 6.04395 9.17962 5.6493 9.57957 5.252C9.69876 5.13281 9.74114 4.99508 9.68551 4.83616C9.63519 4.68784 9.52395 4.60573 9.37033 4.58454C9.23524 4.566 9.12665 4.62162 9.03395 4.71697C8.52276 5.22816 8.00892 5.73935 7.49508 6.24789C7.34676 6.39357 7.15605 6.40416 7.02892 6.27703C6.90178 6.14724 6.91503 5.96714 7.0607 5.82146C7.47654 5.40562 7.89503 4.99243 8.31087 4.57659C8.75849 4.13162 9.20346 3.68665 9.65108 3.24168C9.75438 3.14103 9.81265 3.02449 9.78616 2.87616C9.75703 2.71989 9.66432 2.6113 9.51335 2.56627C9.36503 2.52124 9.2326 2.55832 9.12135 2.66692C8.72141 3.06686 8.32146 3.46416 7.92151 3.86411C7.54011 4.24286 7.1587 4.62427 6.7773 5.00568C6.6846 5.09838 6.5813 5.14076 6.45416 5.10368C6.21843 5.04011 6.16016 4.75935 6.34557 4.57395C6.83292 4.08659 7.32292 3.59924 7.81292 3.11189C8.16519 2.75962 8.52011 2.41 8.87238 2.05508C9.03924 1.88557 9.04189 1.66043 8.88562 1.49886C8.72406 1.332 8.48833 1.3373 8.31351 1.50946C7.48449 2.33849 6.65546 3.16751 5.82643 3.99654C5.7973 4.02568 5.77081 4.05481 5.73903 4.076C5.55627 4.20578 5.302 4.10249 5.26227 3.88265C5.24108 3.76611 5.28876 3.67076 5.37087 3.58865C5.77876 3.18341 6.184 2.77551 6.59189 2.37027C6.87265 2.08951 7.15341 1.81141 7.43151 1.528C7.60103 1.35584 7.60103 1.12276 7.43416 0.963837C7.2673 0.804918 7.04481 0.818162 6.86205 0.99827C5.75757 2.10276 4.65308 3.20724 3.54595 4.31438C3.51681 4.34351 3.48503 4.3753 3.45324 4.40178C3.34465 4.48654 3.22281 4.49449 3.11157 4.42562C2.99503 4.35411 2.93941 4.22697 2.96854 4.09454C2.98708 4.01508 3.00562 3.93297 3.02416 3.85351C3.19632 3.13838 3.37114 2.42324 3.5433 1.70811C3.61216 1.4247 3.46384 1.17043 3.20162 1.10686C2.94205 1.04595 2.68514 1.20486 2.62687 1.48297C2.38584 2.59541 1.98589 3.64957 1.45881 4.6587C1.22308 5.10897 1.11184 5.59103 1.0933 6.09957ZM8.66578 10.2156C9.24054 9.99838 9.7226 9.65141 10.1146 9.17995C10.3212 8.93362 10.4881 8.66081 10.6152 8.36416C10.6894 8.19465 10.6258 8.01719 10.4695 7.94568C10.3132 7.87416 10.1411 7.94568 10.059 8.11519C10.051 8.13108 10.0457 8.14432 10.0378 8.16022C9.82854 8.62108 9.5213 9.00778 9.10281 9.29119C8.88562 9.43686 8.64195 9.54281 8.40622 9.662C8.26849 9.73086 8.18373 9.86595 8.21287 10.0037C8.242 10.1467 8.36384 10.2474 8.53865 10.25C8.56514 10.2447 8.61811 10.2341 8.66578 10.2156ZM9.44714 7.36297C9.30146 7.32854 9.16638 7.40005 9.09487 7.55103C8.84589 8.09135 8.44595 8.46481 7.88708 8.66346C7.70433 8.72968 7.62222 8.89919 7.68314 9.06341C7.74406 9.22497 7.91357 9.29914 8.09103 9.23557C8.81146 8.97865 9.32795 8.49924 9.64578 7.80265C9.66697 7.75762 9.67492 7.70995 9.68022 7.68876C9.68287 7.51395 9.59016 7.39741 9.44714 7.36297Z" fill="#868F90"/>
</svg>
