<svg width="21" height="20" viewBox="0 0 21 20" fill="none" xmlns="http://www.w3.org/2000/svg">
<path d="M0 11.1853C0.0635676 10.8039 0.116541 10.4172 0.190703 10.0358C0.317838 9.40011 0.545622 8.79622 0.847568 8.21881C1.84876 6.30119 2.60097 4.29881 3.06714 2.17989C3.29492 1.13103 4.18487 0.458269 5.24962 0.474161C6.26141 0.490053 7.13016 1.22108 7.30497 2.25405C7.35795 2.5613 7.33146 2.90562 7.26789 3.21286C7.09308 4.03924 6.87589 4.85503 6.67989 5.67611C6.6693 5.71319 6.664 5.75027 6.6587 5.78735C6.68519 5.80854 6.71168 5.83503 6.73816 5.85622C6.76995 5.79265 6.78584 5.71319 6.83351 5.66551C8.49687 3.99686 10.1867 2.34411 11.8289 0.654269C12.8565 -0.40519 14.5835 -0.15092 15.1768 1.22108C15.1821 1.23697 15.1979 1.25286 15.2138 1.27935C15.9555 0.919134 16.6812 0.913837 17.3645 1.40649C18.0373 1.88854 18.2969 2.56659 18.1856 3.39297C18.2439 3.41416 18.2969 3.43535 18.3551 3.45124C19.8013 3.88032 20.2834 5.65492 19.2451 6.74616C18.9802 7.02692 18.6942 7.29178 18.4134 7.56195C18.6094 7.69438 18.7895 7.79503 18.9378 7.92216C19.8225 8.67438 19.8596 9.99341 19.0279 10.841C18.2651 11.6144 17.4917 12.3719 16.7289 13.14C15.4045 14.459 14.0961 15.7992 12.7506 17.0971C11.0819 18.7075 9.06368 19.3908 6.75935 19.1842C3.43795 18.8929 0.66746 16.2919 0.111243 12.9811C0.0688649 12.7427 0.0370811 12.499 0 12.2606C0 11.9004 0 11.5455 0 11.1853ZM1.18659 11.6991C1.23957 12.1282 1.27135 12.5679 1.35081 12.9917C1.89114 15.7992 4.47622 17.9552 7.33146 18.0082C9.16962 18.04 10.7429 17.4043 12.0408 16.1065C13.2856 14.8669 14.5252 13.6221 15.7701 12.3825C16.5647 11.5879 17.3592 10.7986 18.1591 10.004C18.3975 9.76562 18.4823 9.49016 18.371 9.17232C18.2704 8.87568 18.0479 8.71146 17.7407 8.66908C17.4705 8.632 17.2533 8.74324 17.0679 8.93395C16.0455 9.95632 15.0178 10.9787 13.9902 11.9958C13.6935 12.2871 13.3121 12.3083 13.0578 12.0541C12.8036 11.7945 12.8301 11.4343 13.1214 11.1429C13.9531 10.3112 14.7901 9.48487 15.6217 8.65319C16.517 7.76324 17.4069 6.8733 18.3022 5.98335C18.5088 5.78205 18.6253 5.54897 18.5723 5.25232C18.5141 4.93978 18.3286 4.72259 18.0267 4.63254C17.7301 4.54249 17.4652 4.61665 17.2427 4.83384C16.4428 5.63373 15.6429 6.42832 14.843 7.22822C14.0802 7.98573 13.3174 8.74854 12.5546 9.51135C12.3692 9.69676 12.1626 9.78151 11.9083 9.70735C11.4369 9.58022 11.3203 9.0187 11.6911 8.64789C12.6658 7.67319 13.6458 6.69849 14.6258 5.72378C15.3304 5.01924 16.0402 4.32 16.7448 3.61016C17.0785 3.27113 17.0838 2.82086 16.7712 2.49773C16.4481 2.164 15.9767 2.17459 15.627 2.51892C13.969 4.17697 12.3109 5.83503 10.6529 7.49308C10.5946 7.55135 10.5416 7.60962 10.4781 7.652C10.1125 7.91157 9.604 7.70497 9.52454 7.2653C9.48216 7.03222 9.57751 6.84151 9.74173 6.6773C10.5575 5.86681 11.368 5.05103 12.1838 4.24054C12.7453 3.67903 13.3068 3.12281 13.863 2.556C14.2021 2.21167 14.2021 1.74551 13.8683 1.42767C13.5346 1.10984 13.0896 1.13632 12.7241 1.49654C10.5151 3.70551 8.30616 5.91449 6.09189 8.12876C6.03362 8.18703 5.97005 8.25059 5.90649 8.30357C5.6893 8.47308 5.44562 8.48897 5.22314 8.35124C4.99005 8.20822 4.87881 7.95395 4.93708 7.68908C4.97416 7.53016 5.01124 7.36595 5.04833 7.20703C5.39265 5.77676 5.74227 4.34649 6.0866 2.91622C6.22433 2.3494 5.92768 1.84086 5.40324 1.71373C4.88411 1.59189 4.37027 1.90973 4.25373 2.46595C3.77168 4.69081 2.97178 6.79913 1.91762 8.8174C1.44616 9.71795 1.22368 10.6821 1.18659 11.6991ZM16.3316 19.9311C17.4811 19.4968 18.4452 18.8028 19.2292 17.8599C19.6424 17.3672 19.9761 16.8216 20.2304 16.2283C20.3787 15.8893 20.2516 15.5344 19.939 15.3914C19.6265 15.2483 19.2822 15.3914 19.1179 15.7304C19.1021 15.7622 19.0915 15.7886 19.0756 15.8204C18.6571 16.7422 18.0426 17.5156 17.2056 18.0824C16.7712 18.3737 16.2839 18.5856 15.8124 18.824C15.537 18.9617 15.3675 19.2319 15.4257 19.5074C15.484 19.7934 15.7277 19.9947 16.0773 20C16.1303 19.9894 16.2362 19.9682 16.3316 19.9311ZM17.8943 14.2259C17.6029 14.1571 17.3328 14.3001 17.1897 14.6021C16.6918 15.6827 15.8919 16.4296 14.7742 16.8269C14.4087 16.9594 14.2444 17.2984 14.3663 17.6268C14.4881 17.9499 14.8271 18.0983 15.1821 17.9711C16.6229 17.4573 17.6559 16.4985 18.2916 15.1053C18.3339 15.0152 18.3498 14.9199 18.3604 14.8775C18.3657 14.5279 18.1803 14.2948 17.8943 14.2259Z" fill="#038CA9"/>
</svg>
