<svg width="15" height="15" viewBox="0 0 15 15" fill="none" xmlns="http://www.w3.org/2000/svg">
<path d="M9.55676 13.4575C10.3613 13.5332 11.2854 12.8561 11.4407 12.0674C11.4487 12.0316 11.4248 11.9719 11.3929 11.948C11.0384 11.6731 10.8751 11.3067 10.8791 10.8606C10.8831 9.84095 10.8751 8.82528 10.8831 7.80563C10.8871 6.99709 11.4089 6.48328 12.2214 6.46735C12.3887 6.46336 12.556 6.46735 12.7272 6.46735C12.5719 4.46389 10.7238 2.06613 7.77636 2.0263C4.82097 1.98248 2.85337 4.34042 2.66617 6.48726C2.90913 6.48726 3.15209 6.47133 3.39506 6.49124C4.00844 6.54701 4.49835 7.05683 4.50631 7.67021C4.51826 8.77749 4.51826 9.88476 4.50631 10.996C4.49835 11.6413 3.96462 12.167 3.32336 12.1869C2.98481 12.1989 2.64625 12.2069 2.31168 12.163C1.4394 12.0475 0.758307 11.3266 0.72246 10.4543C0.690596 9.68163 0.702545 8.90494 0.726443 8.13224C0.738392 7.71004 0.953474 7.35954 1.24025 7.04886C1.29601 6.98912 1.33983 6.89751 1.33983 6.82183C1.4394 3.94212 3.63802 1.38902 6.4779 0.86326C9.63244 0.277759 12.6316 2.00638 13.711 5.02948C13.9181 5.60702 14.0257 6.20845 14.0576 6.82183C14.0615 6.89751 14.1014 6.98514 14.1492 7.0409C14.4638 7.37945 14.6749 7.76979 14.6789 8.23978C14.6909 9.00452 14.7028 9.76926 14.6709 10.534C14.6311 11.4103 13.8066 12.1551 12.8905 12.1869C12.775 12.1909 12.7193 12.2188 12.6874 12.3383C12.317 13.7602 11.1022 14.7161 9.63244 14.744C9.08677 14.752 8.5411 14.752 7.99144 14.744C7.44577 14.74 7.06738 14.3577 7.0634 13.824C7.05942 13.2703 7.44577 12.8561 7.98347 12.8362C8.15873 12.8322 8.33 12.8322 8.50525 12.8322C9.06287 12.8362 9.30185 12.9756 9.55676 13.4575ZM3.23972 7.74987C2.99675 7.74987 2.77371 7.73792 2.55066 7.75386C2.236 7.77377 1.98507 8.02072 1.98109 8.33537C1.96914 9.00054 1.96914 9.6657 1.98109 10.3309C1.98507 10.6495 2.23202 10.8845 2.55066 10.9124C2.71794 10.9243 2.88921 10.9164 3.0565 10.9283C3.19989 10.9403 3.25167 10.8964 3.25167 10.7411C3.2437 9.80112 3.24768 8.86511 3.24768 7.92513C3.24768 7.87335 3.2437 7.81758 3.23972 7.74987ZM12.1656 7.74987C12.1577 7.77775 12.1497 7.79369 12.1497 7.80563C12.1497 8.80935 12.1497 9.81307 12.1457 10.8168C12.1457 10.9044 12.1816 10.9283 12.2612 10.9283C12.4564 10.9203 12.6476 10.9283 12.8427 10.9124C13.1614 10.8885 13.4083 10.6495 13.4123 10.3309C13.4243 9.6657 13.4243 9.00054 13.4123 8.33537C13.4083 8.02072 13.1574 7.76979 12.8427 7.75386C12.6237 7.74191 12.4006 7.74987 12.1656 7.74987Z" fill="#038CA9"/>
</svg>
