<svg width="17" height="15" viewBox="0 0 17 15" fill="none" xmlns="http://www.w3.org/2000/svg">
<path d="M16.0431 5.07359C16.0431 4.05545 15.2693 3.28573 14.2471 3.28573C13.5222 3.28573 12.781 3.28573 12.0683 3.28573C11.7547 3.28573 11.4452 3.28573 11.1316 3.28573V3.21243C11.1316 2.99658 11.1316 2.78888 11.1316 2.57711C11.1316 2.52824 11.1316 2.48344 11.1316 2.43457C11.1316 2.29203 11.1357 2.14134 11.1153 1.99066C11.0339 1.27389 10.4841 0.76889 9.78357 0.760744C8.52922 0.744454 7.38483 0.748527 6.28931 0.760744C5.53589 0.772962 4.95759 1.36756 4.94537 2.14949C4.9413 2.45086 4.9413 2.74816 4.9413 3.06174C4.9413 3.13505 4.9413 3.20836 4.9413 3.28166H4.00868C3.29598 3.28166 2.57921 3.28166 1.86651 3.28166C0.937967 3.28573 0.282284 3.80702 0.0664382 4.71113C0.0664382 4.7152 0.0623657 4.7152 0.0623657 4.71928L0.0297852 4.76815V13.2472L0.0420028 13.2798C0.0623657 13.3327 0.0786559 13.3857 0.0990187 13.4427C0.143817 13.5771 0.184543 13.7156 0.261921 13.8459C0.599944 14.4364 1.14567 14.7459 1.84615 14.75C2.29006 14.75 2.74211 14.75 3.19009 14.75C3.50775 14.75 3.82134 14.75 4.13086 14.75C4.44444 14.75 4.7621 14.75 5.07569 14.75H7.5233C9.75099 14.75 11.9746 14.75 14.2023 14.75C15.0413 14.75 15.7092 14.2857 15.9494 13.5364C16.0105 13.3531 16.039 13.1495 16.039 12.954C16.0472 10.4697 16.0472 7.8918 16.0431 5.07359ZM6.3504 2.16171C6.35855 2.16171 6.36669 2.16171 6.37484 2.16171C6.74137 2.16171 7.1079 2.16171 7.47443 2.16171H8.39076C8.81023 2.16171 9.23378 2.16171 9.65325 2.16171C9.68583 2.16171 9.71027 2.16171 9.72656 2.16171C9.72656 2.178 9.73063 2.2065 9.73063 2.24316C9.73063 2.53231 9.73063 2.82146 9.73063 3.11061V3.27352H6.3504C6.3504 3.21243 6.3504 3.15541 6.3504 3.09432C6.34633 2.79295 6.34633 2.47529 6.3504 2.16171ZM14.6014 6.05915C14.5159 6.56415 14.2023 6.91439 13.6892 7.06507C12.2841 7.48455 10.8547 7.89588 9.47406 8.29906C9.14418 8.3968 8.81023 8.49047 8.48035 8.58821C8.18306 8.67373 7.87354 8.66966 7.54366 8.57192C6.35448 8.22575 5.14492 7.87551 3.9761 7.53342C3.4711 7.38681 2.9661 7.24019 2.46111 7.09358C1.81357 6.90624 1.43889 6.40939 1.43075 5.73334C1.42667 5.55415 1.43075 5.37089 1.43075 5.19169V5.12653C1.43075 4.8048 1.55292 4.68262 1.87058 4.68262C2.77469 4.68262 3.6788 4.68262 4.58291 4.68262C5.08384 4.68262 5.58883 4.68262 6.08976 4.68262H7.60068H9.20934C10.8384 4.68262 12.5244 4.68262 14.1819 4.6867C14.3082 4.6867 14.4182 4.70706 14.4711 4.74371C14.5525 4.80073 14.6218 4.89847 14.6218 4.93512C14.6462 5.32609 14.6625 5.70484 14.6014 6.05915ZM1.43075 9.05248V8.17688C1.78506 8.36829 2.16381 8.47418 2.53441 8.57192C2.6403 8.60043 2.75026 8.62894 2.86022 8.66152C3.88243 8.96289 4.92501 9.26426 5.935 9.55341C6.38706 9.68373 6.83911 9.81405 7.28709 9.94438C7.78802 10.091 8.28894 10.091 8.78172 9.94845L9.18491 9.83034C10.8017 9.36607 12.4715 8.88144 14.1127 8.3968C14.3 8.33978 14.4752 8.25426 14.6462 8.16874V9.23168C14.6462 10.4331 14.6462 11.6793 14.6462 12.9011C14.6462 13.1821 14.5403 13.2676 14.4222 13.3165C14.3937 13.3287 14.3448 13.3409 14.2512 13.3409C9.84873 13.3409 5.50331 13.3409 1.82986 13.3409C1.64659 13.3409 1.43075 13.2757 1.43075 12.9662C1.42667 11.663 1.42667 10.3353 1.43075 9.05248Z" fill="#038CA9"/>
</svg>
