<svg width="18" height="20" viewBox="0 0 18 20" fill="none" xmlns="http://www.w3.org/2000/svg">
<path d="M8.63871 11.5386C6.67331 11.5386 5.09155 9.95684 5.09745 8.00324C5.10335 6.04965 6.68511 4.46789 8.64461 4.46789C10.5864 4.46789 12.1682 6.06736 12.1682 8.03275C12.1623 9.96274 10.5746 11.5386 8.63871 11.5386ZM8.6269 10.1221C9.78962 10.128 10.7458 9.18957 10.7517 8.03275C10.7576 6.85234 9.81913 5.89619 8.6328 5.88439C7.47599 5.87259 6.50805 6.83463 6.50805 8.00324C6.50805 9.17186 7.44648 10.1162 8.6269 10.1221ZM17.0138 8.4518C17.0138 7.47796 16.8544 6.54543 16.5534 5.67192C16.5475 5.64831 16.5357 5.6306 16.5298 5.60699C16.518 5.57748 16.5062 5.54207 16.4944 5.51256C16.4767 5.46534 16.459 5.41813 16.4413 5.37091C16.4354 5.36501 16.4354 5.3532 16.4295 5.3473C16.2111 4.7807 15.9278 4.24361 15.5973 3.74783C15.5855 3.72422 15.5678 3.70652 15.556 3.68291C15.5383 3.6593 15.5206 3.63569 15.5028 3.61208C13.9978 1.42831 11.4894 0 8.66231 0C8.65641 0 8.65051 0 8.64461 0C8.63871 0 8.63871 0 8.6328 0C8.6328 0 8.6328 0 8.6269 0C5.13286 0.0177063 2.1523 2.14246 0.889253 5.16434C0.476106 6.14408 0.240022 7.21827 0.240022 8.32196C0.23412 10.6651 1.05451 12.6836 2.7012 14.3539C4.48363 16.154 6.28377 17.9424 8.0721 19.7307C8.43213 20.0907 8.82757 20.0907 9.1935 19.7248C10.9818 17.9365 12.782 16.1658 14.5467 14.3598C16.1816 12.6895 17.0197 10.7241 17.0138 8.49312C17.0138 8.48131 17.0138 8.46951 17.0138 8.4518ZM8.69773 18.2257C8.68002 18.2434 8.66231 18.2552 8.59149 18.3083C8.54427 18.2434 8.50886 18.1726 8.45574 18.1194C6.89759 16.5554 5.33353 14.9913 3.76948 13.4332C2.37068 12.0344 1.65062 10.3405 1.65653 8.35737C1.67423 4.94006 4.24164 2.00671 7.61174 1.52864C11.4068 0.991552 14.9185 3.54716 15.5028 7.3186C15.857 9.60861 15.2195 11.633 13.6024 13.2974C11.997 14.9677 10.3326 16.5849 8.69773 18.2257Z" fill="white"/>
</svg>
