<svg width="18" height="20" viewBox="0 0 18 20" fill="none" xmlns="http://www.w3.org/2000/svg">
<path d="M9.11454 11.5386C7.14914 11.5386 5.56738 9.95684 5.57328 8.00324C5.57918 6.04965 7.16094 4.46789 9.12044 4.46789C11.0622 4.46789 12.644 6.06736 12.644 8.03275C12.6381 9.96274 11.0504 11.5386 9.11454 11.5386ZM9.10273 10.1221C10.2654 10.128 11.2216 9.18957 11.2275 8.03275C11.2334 6.85234 10.295 5.89619 9.10863 5.88439C7.95182 5.87259 6.98388 6.83463 6.98388 8.00324C6.98388 9.17186 7.92231 10.1162 9.10273 10.1221ZM17.4896 8.4518C17.4896 7.47796 17.3303 6.54543 17.0292 5.67192C17.0233 5.64831 17.0115 5.6306 17.0056 5.60699C16.9938 5.57748 16.982 5.54207 16.9702 5.51256C16.9525 5.46534 16.9348 5.41813 16.9171 5.37091C16.9112 5.36501 16.9112 5.3532 16.9053 5.3473C16.6869 4.7807 16.4036 4.24361 16.0731 3.74783C16.0613 3.72422 16.0436 3.70652 16.0318 3.68291C16.0141 3.6593 15.9964 3.63569 15.9787 3.61208C14.4736 1.42831 11.9652 0 9.13814 0C9.13224 0 9.12634 0 9.12044 0C9.11454 0 9.11454 0 9.10863 0C9.10863 0 9.10863 0 9.10273 0C5.60869 0.0177063 2.62813 2.14246 1.36508 5.16434C0.951936 6.14408 0.715852 7.21827 0.715852 8.32196C0.70995 10.6651 1.53034 12.6836 3.17703 14.3539C4.95946 16.154 6.7596 17.9424 8.54794 19.7307C8.90796 20.0907 9.3034 20.0907 9.66933 19.7248C11.4577 17.9365 13.2578 16.1658 15.0225 14.3598C16.6574 12.6895 17.4955 10.7241 17.4896 8.49312C17.4896 8.48131 17.4896 8.46951 17.4896 8.4518ZM9.17356 18.2257C9.15585 18.2434 9.13814 18.2552 9.06732 18.3083C9.0201 18.2434 8.98469 18.1726 8.93157 18.1194C7.37342 16.5554 5.80936 14.9913 4.24531 13.4332C2.84651 12.0344 2.12645 10.3405 2.13236 8.35737C2.15006 4.94006 4.71747 2.00671 8.08757 1.52864C11.8826 0.991552 15.3944 3.54716 15.9787 7.3186C16.3328 9.60861 15.6954 11.633 14.0782 13.2974C12.4728 14.9677 10.8084 16.5849 9.17356 18.2257Z" fill="#868F90"/>
</svg>
