<svg width="26" height="30" viewBox="0 0 26 30" fill="none" xmlns="http://www.w3.org/2000/svg">
<path d="M12.5981 17.3079C9.64998 17.3079 7.27733 14.9353 7.28619 12.0049C7.29504 9.07448 9.66768 6.70183 12.6069 6.70183C15.5196 6.70183 17.8923 9.10104 17.8923 12.0491C17.8834 14.9441 15.5019 17.3079 12.5981 17.3079ZM12.5804 15.1831C14.3244 15.192 15.7586 13.7843 15.7675 12.0491C15.7764 10.2785 14.3687 8.84429 12.5892 8.82659C10.854 8.80888 9.40209 10.2519 9.40209 12.0049C9.40209 13.7578 10.8097 15.1743 12.5804 15.1831ZM25.1607 12.6777C25.1607 11.2169 24.9217 9.81814 24.4701 8.50787C24.4613 8.47246 24.4436 8.4459 24.4347 8.41049C24.417 8.36622 24.3993 8.3131 24.3816 8.26884C24.3551 8.19801 24.3285 8.12719 24.3019 8.05636C24.2931 8.04751 24.2931 8.0298 24.2842 8.02095C23.9567 7.17105 23.5317 6.36541 23.0359 5.62175C23.0182 5.58634 22.9917 5.55978 22.974 5.52436C22.9474 5.48895 22.9208 5.45354 22.8943 5.41813C20.6367 2.14246 16.8741 0 12.6335 0C12.6246 0 12.6158 0 12.6069 0C12.5981 0 12.5981 0 12.5892 0C12.5892 0 12.5892 0 12.5804 0C7.33931 0.0265594 2.86847 3.21369 0.973894 7.7465C0.354173 9.21613 4.74276e-05 10.8274 4.74276e-05 12.4829C-0.00880572 15.9976 1.22178 19.0254 3.69181 21.5309C6.36546 24.2311 9.06567 26.9136 11.7482 29.5961C12.2882 30.1361 12.8814 30.1361 13.4303 29.5872C16.1128 26.9047 18.813 24.2488 21.4601 21.5397C23.9124 19.0343 25.1695 16.0862 25.1607 12.7397C25.1607 12.722 25.1607 12.7043 25.1607 12.6777ZM12.6866 27.3385C12.66 27.3651 12.6335 27.3828 12.5272 27.4625C12.4564 27.3651 12.4033 27.2588 12.3236 27.1792C9.9864 24.8331 7.64031 22.487 5.29423 20.1498C3.19603 18.0516 2.11595 15.5107 2.1248 12.5361C2.15136 7.41008 6.00248 3.01007 11.0576 2.29296C16.7502 1.48733 22.0178 5.32074 22.8943 10.9779C23.4255 14.4129 22.4693 17.4496 20.0436 19.9461C17.6355 22.4516 15.1389 24.8773 12.6866 27.3385Z" fill="#038CA9"/>
</svg>
