<svg width="137" height="31" viewBox="0 0 137 31" fill="none" xmlns="http://www.w3.org/2000/svg">
<path d="M31.3567 3.51613C31.3567 2.61161 31.6582 1.90809 32.3617 1.30507C32.8642 0.601556 33.6682 0.300049 34.4723 0.300049C35.2763 0.300049 36.0803 0.601556 36.6833 1.20457C37.2863 1.80759 37.6883 2.61161 37.6883 3.41563C37.6883 4.21965 37.3868 5.02367 36.6833 5.62668C36.0803 6.2297 35.2763 6.5312 34.4723 6.5312C33.6682 6.5312 32.8642 6.2297 32.2612 5.62668C31.6582 5.12417 31.3567 4.32015 31.3567 3.51613Z" fill="#038CA9"/>
<path d="M129.849 27.0338C129.849 26.1293 130.151 25.4258 130.854 24.8227C131.457 24.2197 132.261 23.9182 133.065 23.9182C133.869 23.9182 134.673 24.2197 135.276 24.8227C135.879 25.4258 136.281 26.2298 136.281 27.0338C136.281 27.8378 135.98 28.6418 135.276 29.2448C134.673 29.8479 133.869 30.1494 133.065 30.1494C132.261 30.1494 131.457 29.8479 130.854 29.2448C130.251 28.6418 129.849 27.9383 129.849 27.0338Z" fill="#FF5050"/>
<path d="M0 3.51613C0 2.61161 0.301508 1.90809 1.00503 1.30507C1.60804 0.601556 2.31156 0.300049 3.21608 0.300049C4.0201 0.300049 4.72362 0.601556 5.42714 1.20457C6.03015 1.80759 6.43216 2.61161 6.43216 3.41563C6.43216 4.21965 6.13065 5.02367 5.42714 5.62668C4.72362 6.3302 4.0201 6.63171 3.21608 6.63171C2.31156 6.63171 1.60804 6.3302 1.00503 5.72718C0.301508 5.12417 0 4.32015 0 3.51613Z" fill="#038CA9"/>
<path d="M6.33166 12.4612V27.0341C6.33166 27.9386 6.03015 28.6421 5.42714 29.3456C4.82412 29.9486 4.0201 30.2501 3.21608 30.2501C2.31156 30.2501 1.60804 29.9486 1.00503 29.3456C0.301508 28.6421 0 27.9386 0 27.0341V12.4612C0 11.5567 0.301508 10.7527 0.904523 10.1496C1.50754 9.54663 2.31156 9.24512 3.11558 9.24512C4.0201 9.24512 4.72362 9.54663 5.32663 10.1496C6.03015 10.7527 6.33166 11.5567 6.33166 12.4612Z" fill="#038CA9"/>
<path d="M13.5677 9.24512H22.4119C24.422 9.24512 25.829 10.0491 26.6331 11.7577C27.4371 13.3657 27.2361 14.9738 25.829 16.5818L17.0853 24.7225H24.623C25.3265 24.7225 26.03 25.024 26.5326 25.5265C27.0351 26.029 27.3366 26.7326 27.3366 27.4361C27.3366 28.2401 27.0351 28.8431 26.5326 29.4461C26.03 29.9486 25.3265 30.2501 24.623 30.2501H14.9748C13.6682 30.2501 12.6632 29.8481 11.7587 29.0441C10.8542 28.2401 10.4521 27.3356 10.4521 26.23C10.4521 25.1245 10.8542 24.019 11.7587 22.813L20.4019 14.6723H13.5677C12.7637 14.6723 12.1607 14.3707 11.5577 13.8682C11.0552 13.3657 10.7537 12.6622 10.7537 11.9587C10.7537 11.2552 11.0552 10.5517 11.5577 10.0491C12.1607 9.54662 12.7637 9.24512 13.5677 9.24512Z" fill="#038CA9"/>
<path d="M37.6884 12.4612V27.0341C37.6884 27.9386 37.3869 28.6421 36.7839 29.3456C36.1809 29.9486 35.3769 30.2501 34.5729 30.2501C33.6683 30.2501 32.9648 29.9486 32.3618 29.3456C31.7588 28.7426 31.4573 27.9386 31.4573 27.0341V12.4612C31.4573 11.5567 31.7588 10.7527 32.3618 10.1496C32.9648 9.54663 33.7688 9.24512 34.5729 9.24512C35.4774 9.24512 36.1809 9.54663 36.7839 10.1496C37.3869 10.7527 37.6884 11.5567 37.6884 12.4612Z" fill="#038CA9"/>
<path d="M69.9498 9.24512C70.2513 9.24512 70.5528 9.34562 70.8543 9.64713C71.1558 9.94864 71.2563 10.2501 71.2563 10.5517C71.2563 10.6522 71.2563 10.7527 71.1558 10.8532C71.1558 10.9537 71.0553 11.0542 71.0553 11.1547L65.0251 29.2451C64.7236 29.9486 64.3216 30.2501 63.7186 30.2501C63.1156 30.2501 62.7136 29.9486 62.4121 29.2451L56.2814 13.4662L50.0503 29.1446C49.7488 29.8481 49.3468 30.1496 48.7437 30.1496C48.1407 30.1496 47.7387 29.8481 47.4372 29.1446L41.4071 11.0542C41.3066 10.8532 41.2061 10.6522 41.2061 10.4511C41.2061 10.1496 41.3066 9.84813 41.6081 9.54662C41.9096 9.34562 42.2111 9.24512 42.6131 9.24512C43.2161 9.24512 43.6181 9.54662 43.8191 10.0491L48.9447 26.029L54.9749 10.1496C55.1759 9.54663 55.5779 9.24512 56.2814 9.24512C56.8844 9.24512 57.2865 9.54663 57.4875 10.1496L63.6181 26.029L68.7437 10.0491C68.8442 9.54662 69.2463 9.24512 69.9498 9.24512Z" fill="#FF5050"/>
<path d="M105.327 9.24512C105.829 9.24512 106.231 9.34562 106.533 9.64713C106.834 9.84813 106.935 10.2501 106.935 10.6522C106.935 11.5567 106.332 11.9587 105.126 11.9587C103.216 11.9587 101.608 12.5617 100.301 13.7677C98.9949 14.9738 98.1909 16.2803 97.9899 17.7878V28.8431C97.9899 29.2451 97.8894 29.5466 97.5878 29.8481C97.2863 30.1496 96.9848 30.2501 96.5828 30.2501C96.1808 30.2501 95.8793 30.1496 95.5778 29.8481C95.2763 29.5466 95.1758 29.2451 95.1758 28.8431V10.6522C95.1758 10.2501 95.2763 9.94864 95.5778 9.64713C95.8793 9.34562 96.1808 9.24512 96.5828 9.24512C96.9848 9.24512 97.2863 9.34562 97.5878 9.64713C97.8894 9.94864 97.9899 10.2501 97.9899 10.6522V14.2702C98.1909 13.3657 98.8944 12.2602 100.301 11.0542C101.708 9.84813 103.417 9.24512 105.327 9.24512Z" fill="#FF5050"/>
<path d="M117.688 18.8932L126.633 28.1394C127.035 28.5415 127.136 29.044 126.935 29.5465C126.734 30.049 126.332 30.25 125.829 30.25C125.427 30.25 125.126 30.1495 124.925 29.848L115.98 20.6018L112.563 24.0188V28.843C112.563 29.245 112.462 29.5465 112.161 29.848C111.859 30.1495 111.558 30.25 111.156 30.25C110.754 30.25 110.452 30.1495 110.151 29.848C109.849 29.5465 109.749 29.245 109.749 28.843V1.60678C109.749 1.00377 109.95 0.702261 110.452 0.400754C110.955 0.199749 111.357 0.199749 111.859 0.400754C112.362 0.601759 112.563 1.00377 112.563 1.60678V20.6018L123.316 9.54648C123.719 9.14447 124.221 9.04397 124.724 9.24498C125.226 9.44598 125.528 9.84799 125.528 10.3505C125.528 10.652 125.427 10.9535 125.126 11.255L117.688 18.8932Z" fill="#FF5050"/>
<path d="M82.2109 9.24512C76.3818 9.24512 71.7587 13.9687 71.7587 19.6974C71.7587 25.5265 76.4823 30.1496 82.2109 30.1496C88.0401 30.1496 92.6632 25.426 92.6632 19.6974C92.6632 13.9687 88.0401 9.24512 82.2109 9.24512ZM82.2109 27.5366C77.8893 27.5366 74.3717 24.019 74.3717 19.6974C74.3717 15.3758 77.8893 11.8582 82.2109 11.8582C86.5325 11.8582 90.0501 15.3758 90.0501 19.6974C90.0501 24.019 86.5325 27.5366 82.2109 27.5366Z" fill="#FF5050"/>
</svg>
