<svg width="137" height="30" viewBox="0 0 137 30" fill="none" xmlns="http://www.w3.org/2000/svg">
<path d="M31.3567 3.26613C31.3567 2.36161 31.6582 1.65809 32.3617 1.05507C32.8642 0.351556 33.6682 0.0500488 34.4723 0.0500488C35.2763 0.0500488 36.0803 0.351556 36.6833 0.954571C37.2863 1.55759 37.6883 2.36161 37.6883 3.16563C37.6883 3.96965 37.3868 4.77367 36.6833 5.37668C36.0803 5.9797 35.2763 6.2812 34.4723 6.2812C33.6682 6.2812 32.8642 5.9797 32.2612 5.37668C31.6582 4.87417 31.3567 4.07015 31.3567 3.26613Z" fill="white"/>
<path d="M129.849 26.7838C129.849 25.8793 130.151 25.1758 130.854 24.5727C131.457 23.9697 132.261 23.6682 133.065 23.6682C133.869 23.6682 134.673 23.9697 135.276 24.5727C135.879 25.1758 136.281 25.9798 136.281 26.7838C136.281 27.5878 135.98 28.3918 135.276 28.9948C134.673 29.5979 133.869 29.8994 133.065 29.8994C132.261 29.8994 131.457 29.5979 130.854 28.9948C130.251 28.3918 129.849 27.6883 129.849 26.7838Z" fill="white"/>
<path d="M0 3.26613C0 2.36161 0.301508 1.65809 1.00503 1.05507C1.60804 0.351556 2.31156 0.0500488 3.21608 0.0500488C4.0201 0.0500488 4.72362 0.351556 5.42714 0.954571C6.03015 1.55759 6.43216 2.36161 6.43216 3.16563C6.43216 3.96965 6.13065 4.77367 5.42714 5.37668C4.72362 6.0802 4.0201 6.38171 3.21608 6.38171C2.31156 6.38171 1.60804 6.0802 1.00503 5.47718C0.301508 4.87417 0 4.07015 0 3.26613Z" fill="white"/>
<path d="M6.33166 12.2112V26.7841C6.33166 27.6886 6.03015 28.3921 5.42714 29.0956C4.82412 29.6986 4.0201 30.0001 3.21608 30.0001C2.31156 30.0001 1.60804 29.6986 1.00503 29.0956C0.301508 28.3921 0 27.6886 0 26.7841V12.2112C0 11.3067 0.301508 10.5027 0.904523 9.89964C1.50754 9.29663 2.31156 8.99512 3.11558 8.99512C4.0201 8.99512 4.72362 9.29663 5.32663 9.89964C6.03015 10.5027 6.33166 11.3067 6.33166 12.2112Z" fill="white"/>
<path d="M13.5677 8.99512H22.4119C24.422 8.99512 25.829 9.79914 26.6331 11.5077C27.4371 13.1157 27.2361 14.7238 25.829 16.3318L17.0853 24.4725H24.623C25.3265 24.4725 26.03 24.774 26.5326 25.2765C27.0351 25.779 27.3366 26.4826 27.3366 27.1861C27.3366 27.9901 27.0351 28.5931 26.5326 29.1961C26.03 29.6986 25.3265 30.0001 24.623 30.0001H14.9748C13.6682 30.0001 12.6632 29.5981 11.7587 28.7941C10.8542 27.9901 10.4521 27.0856 10.4521 25.98C10.4521 24.8745 10.8542 23.769 11.7587 22.563L20.4019 14.4223H13.5677C12.7637 14.4223 12.1607 14.1207 11.5577 13.6182C11.0552 13.1157 10.7537 12.4122 10.7537 11.7087C10.7537 11.0052 11.0552 10.3017 11.5577 9.79914C12.1607 9.29662 12.7637 8.99512 13.5677 8.99512Z" fill="white"/>
<path d="M37.6884 12.2112V26.7841C37.6884 27.6886 37.3869 28.3921 36.7839 29.0956C36.1809 29.6986 35.3769 30.0001 34.5729 30.0001C33.6683 30.0001 32.9648 29.6986 32.3618 29.0956C31.7588 28.4926 31.4573 27.6886 31.4573 26.7841V12.2112C31.4573 11.3067 31.7588 10.5027 32.3618 9.89964C32.9648 9.29663 33.7688 8.99512 34.5729 8.99512C35.4774 8.99512 36.1809 9.29663 36.7839 9.89964C37.3869 10.5027 37.6884 11.3067 37.6884 12.2112Z" fill="white"/>
<path d="M69.9498 8.99512C70.2513 8.99512 70.5528 9.09562 70.8543 9.39713C71.1558 9.69864 71.2563 10.0001 71.2563 10.3017C71.2563 10.4022 71.2563 10.5027 71.1558 10.6032C71.1558 10.7037 71.0553 10.8042 71.0553 10.9047L65.0251 28.9951C64.7236 29.6986 64.3216 30.0001 63.7186 30.0001C63.1156 30.0001 62.7136 29.6986 62.4121 28.9951L56.2814 13.2162L50.0503 28.8946C49.7488 29.5981 49.3468 29.8996 48.7437 29.8996C48.1407 29.8996 47.7387 29.5981 47.4372 28.8946L41.4071 10.8042C41.3066 10.6032 41.2061 10.4022 41.2061 10.2011C41.2061 9.89964 41.3066 9.59813 41.6081 9.29662C41.9096 9.09562 42.2111 8.99512 42.6131 8.99512C43.2161 8.99512 43.6181 9.29662 43.8191 9.79914L48.9447 25.779L54.9749 9.89964C55.1759 9.29663 55.5779 8.99512 56.2814 8.99512C56.8844 8.99512 57.2865 9.29663 57.4875 9.89964L63.6181 25.779L68.7437 9.79914C68.8442 9.29662 69.2463 8.99512 69.9498 8.99512Z" fill="white"/>
<path d="M105.327 8.99512C105.829 8.99512 106.231 9.09562 106.533 9.39713C106.834 9.59813 106.935 10.0001 106.935 10.4022C106.935 11.3067 106.332 11.7087 105.126 11.7087C103.216 11.7087 101.608 12.3117 100.301 13.5177C98.9949 14.7238 98.1909 16.0303 97.9899 17.5378V28.5931C97.9899 28.9951 97.8894 29.2966 97.5878 29.5981C97.2863 29.8996 96.9848 30.0001 96.5828 30.0001C96.1808 30.0001 95.8793 29.8996 95.5778 29.5981C95.2763 29.2966 95.1758 28.9951 95.1758 28.5931V10.4022C95.1758 10.0001 95.2763 9.69864 95.5778 9.39713C95.8793 9.09562 96.1808 8.99512 96.5828 8.99512C96.9848 8.99512 97.2863 9.09562 97.5878 9.39713C97.8894 9.69864 97.9899 10.0001 97.9899 10.4022V14.0202C98.1909 13.1157 98.8944 12.0102 100.301 10.8042C101.708 9.59813 103.417 8.99512 105.327 8.99512Z" fill="white"/>
<path d="M117.688 18.6432L126.633 27.8894C127.035 28.2915 127.136 28.794 126.935 29.2965C126.734 29.799 126.332 30 125.829 30C125.427 30 125.126 29.8995 124.925 29.598L115.98 20.3518L112.563 23.7688V28.593C112.563 28.995 112.462 29.2965 112.161 29.598C111.859 29.8995 111.558 30 111.156 30C110.754 30 110.452 29.8995 110.151 29.598C109.849 29.2965 109.749 28.995 109.749 28.593V1.35678C109.749 0.753769 109.95 0.452261 110.452 0.150754C110.955 -0.0502513 111.357 -0.0502513 111.859 0.150754C112.362 0.351759 112.563 0.753769 112.563 1.35678V20.3518L123.316 9.29648C123.719 8.89447 124.221 8.79397 124.724 8.99498C125.226 9.19598 125.528 9.59799 125.528 10.1005C125.528 10.402 125.427 10.7035 125.126 11.005L117.688 18.6432Z" fill="white"/>
<path d="M82.2109 8.99512C76.3818 8.99512 71.7587 13.7187 71.7587 19.4474C71.7587 25.2765 76.4823 29.8996 82.2109 29.8996C88.0401 29.8996 92.6632 25.176 92.6632 19.4474C92.6632 13.7187 88.0401 8.99512 82.2109 8.99512ZM82.2109 27.2866C77.8893 27.2866 74.3717 23.769 74.3717 19.4474C74.3717 15.1258 77.8893 11.6082 82.2109 11.6082C86.5325 11.6082 90.0501 15.1258 90.0501 19.4474C90.0501 23.769 86.5325 27.2866 82.2109 27.2866Z" fill="white"/>
</svg>
