<svg width="15" height="14" viewBox="0 0 15 14" fill="none" xmlns="http://www.w3.org/2000/svg">
<path d="M10.9155 10.8865C8.20015 13.1186 4.31 12.5874 2.23818 10.0482C0.224856 7.58696 0.405227 4.01939 2.65254 1.78722C4.89011 -0.435196 8.44876 -0.605776 10.8911 1.39245C13.4601 3.4979 13.9379 7.38227 11.7393 10.0628C11.7832 10.1067 11.8271 10.1554 11.8709 10.2042C12.7972 11.135 13.7282 12.061 14.6545 12.9919C14.8446 13.182 14.8885 13.4354 14.7861 13.6645C14.6837 13.8838 14.4449 14.0398 14.206 13.991C14.0597 13.9618 13.9037 13.8789 13.8014 13.7766C12.88 12.8701 11.9733 11.9587 11.0617 11.0473C11.0129 10.9937 10.9691 10.945 10.9155 10.8865ZM2.01393 6.14921C2.01393 8.88825 4.232 11.1107 6.96193 11.1155C9.72111 11.1204 11.9538 8.88825 11.9489 6.12972C11.944 3.39068 9.71136 1.17313 6.97168 1.17801C4.22225 1.18288 2.00906 3.40043 2.01393 6.14921ZM3.50077 7.02648C3.78351 7.0411 4.1345 6.80229 4.115 6.33929C4.10525 6.12484 4.14913 5.90065 4.20275 5.69108C4.55374 4.26795 5.76271 3.30783 7.24955 3.26884C7.61029 3.25909 7.86378 3.0154 7.86378 2.68399C7.86378 2.3477 7.59566 2.09914 7.23005 2.09914C7.1033 2.09914 6.97655 2.11376 6.84981 2.12351C4.69999 2.32333 2.99378 4.15098 2.94503 6.31005C2.93041 6.73406 3.1449 7.00699 3.50077 7.02648Z" fill="white"/>
</svg>
