<svg width="40" height="40" viewBox="0 0 40 40" fill="none" xmlns="http://www.w3.org/2000/svg">
<circle cx="19.9912" cy="20" r="19" stroke="white"/>
<path fill-rule="evenodd" clip-rule="evenodd" d="M9.78457 9.79295C9.39405 10.1835 9.39405 10.8166 9.78457 11.2072L18.2698 19.6924L9.78441 28.1779C9.39389 28.5684 9.39389 29.2016 9.78441 29.5921C10.1749 29.9826 10.8081 29.9826 11.1986 29.5921L19.6841 21.1067L28.1693 29.5919C28.5599 29.9825 29.193 29.9825 29.5836 29.5919C29.9741 29.2014 29.9741 28.5683 29.5836 28.1777L21.0983 19.6924L29.5834 11.2073C29.9739 10.8168 29.9739 10.1836 29.5834 9.79311C29.1929 9.40258 28.5597 9.40258 28.1692 9.79311L19.6841 18.2782L11.1988 9.79295C10.8083 9.40243 10.1751 9.40243 9.78457 9.79295Z" fill="white"/>
</svg>
