<svg width="39" height="40" viewBox="0 0 39 40" fill="none" xmlns="http://www.w3.org/2000/svg">
<circle cx="19.5" cy="19.625" r="19" stroke="#D5DEDE"/>
<path fill-rule="evenodd" clip-rule="evenodd" d="M9.29306 9.41789C8.90253 9.80842 8.90253 10.4416 9.29305 10.8321L17.7783 19.3174L9.29289 27.8028C8.90237 28.1933 8.90237 28.8265 9.29289 29.217C9.68342 29.6076 10.3166 29.6076 10.7071 29.217L19.1925 20.7316L27.6778 29.2169C28.0684 29.6074 28.7015 29.6074 29.092 29.2169C29.4826 28.8264 29.4826 28.1932 29.092 27.8027L20.6068 19.3174L29.0919 10.8323C29.4824 10.4417 29.4824 9.80857 29.0919 9.41804C28.7014 9.02752 28.0682 9.02752 27.6777 9.41804L19.1925 17.9032L10.7073 9.41789C10.3167 9.02737 9.68358 9.02737 9.29306 9.41789Z" fill="#002229"/>
</svg>
