<svg width="31" height="30" viewBox="0 0 31 30" fill="none" xmlns="http://www.w3.org/2000/svg">
<path d="M0 16.7779C0.0953514 16.2058 0.174811 15.6258 0.286054 15.0537C0.476757 14.1002 0.818433 13.1943 1.27135 12.3282C2.77314 9.45178 3.90146 6.44822 4.6007 3.26984C4.94238 1.69654 6.2773 0.687404 7.87443 0.711242C9.39211 0.73508 10.6952 1.83162 10.9575 3.38108C11.0369 3.84194 10.9972 4.35843 10.9018 4.8193C10.6396 6.05886 10.3138 7.28254 10.0198 8.51416C10.0039 8.56978 9.996 8.6254 9.98805 8.68103C10.0278 8.71281 10.0675 8.75254 10.1072 8.78432C10.1549 8.68897 10.1788 8.56978 10.2503 8.49827C12.7453 5.9953 15.2801 3.51616 17.7433 0.981404C19.2848 -0.607785 21.8752 -0.22638 22.7651 1.83162C22.7731 1.85546 22.7969 1.8793 22.8208 1.91903C23.9332 1.3787 25.0218 1.37076 26.0468 2.10973C27.0559 2.83281 27.4453 3.84989 27.2784 5.08946C27.3658 5.12124 27.4453 5.15303 27.5327 5.17686C29.7019 5.82049 30.425 8.48238 28.8676 10.1192C28.4703 10.5404 28.0412 10.9377 27.6201 11.3429C27.9141 11.5416 28.1843 11.6925 28.4068 11.8832C29.7337 13.0116 29.7894 14.9901 28.5418 16.2615C27.3976 17.4216 26.2375 18.5578 25.0933 19.71C23.1068 21.6885 21.1442 23.6989 19.1259 25.6456C16.6229 28.0612 13.5955 29.0862 10.139 28.7763C5.15692 28.3393 1.00119 24.4378 0.166865 19.4716C0.103297 19.1141 0.0556216 18.7485 0 18.391C0 17.8506 0 17.3183 0 16.7779ZM1.77989 17.5487C1.85935 18.1923 1.90703 18.8518 2.02622 19.4875C2.8367 23.6989 6.71432 26.9329 10.9972 27.0123C13.7544 27.06 16.1144 26.1065 18.0611 24.1597C19.9284 22.3004 21.7878 20.4331 23.6551 18.5737C24.847 17.3818 26.0389 16.1979 27.2387 15.006C27.5963 14.6484 27.7234 14.2352 27.5565 13.7585C27.4056 13.3135 27.0718 13.0672 26.611 13.0036C26.2057 12.948 25.8799 13.1149 25.6018 13.4009C24.0683 14.9345 22.5268 16.4681 20.9852 17.9937C20.5403 18.4307 19.9682 18.4625 19.5868 18.0811C19.2054 17.6917 19.2451 17.1514 19.6821 16.7144C20.9296 15.4669 22.1851 14.2273 23.4326 12.9798C24.7755 11.6449 26.1104 10.3099 27.4532 8.97503C27.7631 8.67308 27.9379 8.32346 27.8585 7.87849C27.7711 7.40967 27.493 7.08389 27.0401 6.94881C26.5951 6.81373 26.1978 6.92497 25.8641 7.25076C24.6642 8.45059 23.4644 9.64249 22.2645 10.8423C21.1203 11.9786 19.9761 13.1228 18.8319 14.267C18.5538 14.5451 18.2439 14.6723 17.8625 14.561C17.1553 14.3703 16.9805 13.5281 17.5367 12.9718C18.9988 11.5098 20.4688 10.0477 21.9388 8.58568C22.9956 7.52886 24.0603 6.48 25.1171 5.41524C25.6177 4.9067 25.6257 4.2313 25.1569 3.74659C24.6722 3.246 23.965 3.26189 23.4405 3.77838C20.9535 6.26546 18.4664 8.75254 15.9793 11.2396C15.8919 11.327 15.8124 11.4144 15.7171 11.478C15.1688 11.8674 14.406 11.5575 14.2868 10.8979C14.2232 10.5483 14.3663 10.2623 14.6126 10.0159C15.8363 8.80022 17.052 7.57654 18.2757 6.36081C19.1179 5.51854 19.9602 4.68422 20.7945 3.834C21.3031 3.31751 21.3031 2.61827 20.8025 2.14151C20.3019 1.66476 19.6344 1.70449 19.0862 2.24481C15.7727 5.55827 12.4592 8.87173 9.13784 12.1931C9.05043 12.2805 8.95508 12.3759 8.85973 12.4554C8.53395 12.7096 8.16843 12.7335 7.8347 12.5269C7.48508 12.3123 7.31822 11.9309 7.40562 11.5336C7.46124 11.2952 7.51687 11.0489 7.57249 10.8105C8.08897 8.66514 8.61341 6.51973 9.12989 4.37432C9.33649 3.52411 8.89151 2.7613 8.10487 2.57059C7.32616 2.38784 6.55541 2.86459 6.3806 3.69892C5.65751 7.03622 4.45768 10.1987 2.87643 13.2261C2.16924 14.5769 1.83551 16.0231 1.77989 17.5487ZM24.4974 29.8967C26.2216 29.2451 27.6678 28.2042 28.8438 26.7898C29.4636 26.0509 29.9642 25.2324 30.3456 24.3425C30.5681 23.8339 30.3774 23.3016 29.9085 23.087C29.4397 22.8725 28.9232 23.087 28.6769 23.5956C28.6531 23.6432 28.6372 23.683 28.6134 23.7306C27.9856 25.1132 27.0639 26.2733 25.8084 27.1236C25.1569 27.5606 24.4258 27.8784 23.7187 28.236C23.3055 28.4426 23.0512 28.8478 23.1386 29.261C23.226 29.6901 23.5915 29.9921 24.1159 30C24.1954 29.9841 24.3543 29.9523 24.4974 29.8967ZM26.8414 21.3389C26.4044 21.2356 25.9991 21.4502 25.7846 21.9031C25.0377 23.5241 23.8378 24.6444 22.1612 25.2404C21.613 25.439 21.3667 25.9476 21.5494 26.4402C21.7322 26.9249 22.2407 27.1474 22.7731 26.9567C24.9344 26.1859 26.4838 24.7477 27.4374 22.6579C27.5009 22.5229 27.5248 22.3798 27.5407 22.3163C27.5486 21.7918 27.2705 21.4422 26.8414 21.3389Z" fill="white"/>
</svg>
