<svg width="25" height="30" viewBox="0 0 25 30" fill="none" xmlns="http://www.w3.org/2000/svg">
<path d="M24.4515 24.6718C23.9865 21.237 22.1033 18.8584 18.9027 17.5987C18.027 17.2545 17.0737 17.1449 16.1515 16.9258C15.7485 16.832 15.4773 16.5972 15.3766 16.1904C15.2526 15.6896 15.3378 15.4627 15.7485 15.1654C17.0892 14.1952 17.8565 12.8886 18.0734 11.2455C18.0967 11.0734 18.1587 11.0264 18.3137 10.9951C18.9957 10.8621 19.4606 10.291 19.4684 9.58679C19.4761 9.20341 19.4839 8.82785 19.4606 8.44447C19.4529 8.24104 19.4296 8.01414 19.3212 7.85766C19.1119 7.55252 19.1119 7.2239 19.1197 6.88746C19.1197 6.67621 19.1197 6.45713 19.1197 6.24588C19.1119 5.90944 18.9492 5.71384 18.6702 5.72166C18.4067 5.72949 18.2439 5.92509 18.2439 6.23806C18.2439 6.51973 18.2439 6.8014 18.2439 7.11436C14.2451 5.97986 10.2772 5.97986 6.2939 7.11436C6.2939 6.29283 6.28615 5.51041 6.2939 4.73582C6.31715 3.31965 7.23936 2.09126 8.59556 1.70005C9.49453 1.44185 10.409 1.22278 11.3157 1.0037C12.0054 0.839395 12.6952 0.862867 13.3849 1.04282C14.0979 1.22278 14.8031 1.41838 15.5238 1.58269C16.9187 1.89566 17.8177 2.72502 18.1819 4.13336C18.2594 4.4385 18.4842 4.57934 18.7322 4.50892C18.9802 4.4385 19.0964 4.20378 19.0189 3.89864C18.6314 2.34163 17.6782 1.30102 16.1593 0.839395C15.2681 0.56555 14.3458 0.354298 13.4391 0.143046C12.6952 -0.0369099 11.9434 -0.0525582 11.1995 0.127397C10.2772 0.346473 9.35503 0.56555 8.44832 0.823747C6.61939 1.34014 5.44143 2.89715 5.42593 4.81406C5.41818 5.61213 5.43368 6.41801 5.41818 7.21608C5.41818 7.38821 5.32519 7.56034 5.27869 7.73247C5.20894 7.97502 5.10819 8.20974 5.08495 8.46012C5.05395 8.82785 5.06945 9.20341 5.0772 9.57115C5.08495 10.3144 5.54218 10.8621 6.2629 11.0264C6.3404 11.0421 6.45664 11.1516 6.46439 11.2299C6.69688 12.9903 7.54935 14.3517 9.01405 15.3297C9.08379 15.3767 9.16904 15.4314 9.19229 15.5019C9.40153 16.1669 9.0218 16.8007 8.33982 16.9493C7.96009 17.0276 7.58035 17.098 7.20061 17.1762C3.66675 17.9039 1.36509 19.9929 0.311127 23.4747C-0.099607 24.8439 0.00888888 26.2601 0.0243883 27.6606C0.0398877 28.6464 0.683113 29.4993 1.59758 29.8435C1.75257 29.8983 1.89982 29.9531 2.05481 30C8.8668 30 15.671 30 22.483 30C22.5838 29.9687 22.6768 29.9296 22.7775 29.8983C23.723 29.6244 24.4825 28.7638 24.5057 27.8092C24.5445 26.7608 24.591 25.7045 24.4515 24.6718ZM17.748 18.1386C18.1664 18.2872 18.5772 18.4281 18.9724 18.5767C19.0267 18.6002 19.0809 18.6941 19.0887 18.7489C19.0964 20.345 19.0964 21.9411 19.0964 23.5138C18.6392 23.4199 18.2052 23.3338 17.7557 23.2399C17.748 21.5969 17.748 19.8912 17.748 18.1386ZM17.8022 7.91243C17.2132 8.6479 16.539 9.0391 15.5703 8.86697C13.3151 8.46794 11.0522 8.49141 8.7893 8.89044C8.23907 8.98433 7.73534 8.85915 7.30136 8.48359C7.11537 8.31928 6.93712 8.13933 6.71238 7.92025C10.44 6.89529 14.1133 6.89529 17.8022 7.91243ZM7.36336 11.2768C7.34786 11.1829 7.34786 11.0812 7.33236 10.9873C7.27036 10.4631 7.01462 10.2049 6.49539 10.1423C6.13891 10.0954 5.96066 9.90758 5.95291 9.54767C5.94516 9.19559 5.95291 8.85132 5.95291 8.49924C5.99166 8.47576 6.02266 8.45229 6.06141 8.42882C6.14665 8.54618 6.2319 8.67137 6.3249 8.77308C7.11537 9.63374 8.06083 9.9467 9.23104 9.73545C11.3002 9.35989 13.3849 9.38337 15.4618 9.7511C16.5158 9.93888 17.3837 9.64156 18.1277 8.89044C18.2594 8.75743 18.3912 8.63225 18.5229 8.49924C18.5307 8.49141 18.5539 8.49141 18.6004 8.48359C18.6004 8.8748 18.6159 9.25818 18.5927 9.64939C18.5772 9.93106 18.3757 10.1032 18.0734 10.1423C17.531 10.2127 17.2752 10.4631 17.221 11.003C16.9652 13.6319 14.9426 14.9776 13.2609 15.3375C10.7267 15.8931 7.78184 14.1717 7.36336 11.2768ZM15.2836 17.5283C13.5941 19.3122 11.3777 19.5 9.40928 17.4266C9.85876 17.0432 10.0758 16.5346 10.0835 15.9009C11.5482 16.4799 12.9974 16.4799 14.4621 15.9009C14.4931 16.5972 14.7333 17.1449 15.2836 17.5283ZM7.82059 18.3264C7.82059 18.1934 7.85934 17.9665 7.92134 17.9508C8.14608 17.9039 8.38632 17.7474 8.62656 17.9665C9.01405 18.3107 9.40928 18.6315 9.82001 18.9445C11.339 20.0946 13.4236 20.1025 14.9581 18.9758C15.3301 18.7019 15.7098 18.4203 16.043 18.0995C16.3065 17.8491 16.5468 17.8882 16.8335 18.0134C16.8335 19.7738 16.8335 21.5264 16.8335 23.3025C13.8344 23.3025 10.843 23.3025 7.81284 23.3025C7.81284 23.2008 7.81284 23.0913 7.81284 22.9896C7.81284 21.4326 7.81284 19.8756 7.82059 18.3264ZM3.83724 29.1002C3.33351 29.1002 2.83753 29.1237 2.3493 29.0924C1.51233 29.0376 0.907855 28.3726 0.900105 27.5276C0.892355 27.0425 0.900105 26.5574 0.900105 26.0645C2.03156 26.0645 3.13202 26.0645 4.27123 26.0645C3.597 27.019 3.99224 28.0831 3.83724 29.1002ZM4.68196 24.7969C4.68196 24.8987 4.68196 25.0082 4.68196 25.1334C3.41876 25.1334 2.17881 25.1334 0.900105 25.1334C1.17909 22.4888 2.41905 20.478 4.68196 19.0149C4.68196 19.453 4.68196 19.813 4.68196 20.1729C4.68196 20.5484 4.83695 20.744 5.11594 20.744C5.40268 20.7519 5.55768 20.5641 5.56543 20.1885C5.57318 19.7269 5.57318 19.2731 5.56543 18.8115C5.56543 18.6472 5.60418 18.5376 5.77467 18.4829C6.1544 18.3655 6.52639 18.2403 6.92163 18.1073C6.92163 19.8677 6.92163 21.5734 6.92163 23.2478C6.47214 23.3338 6.03041 23.4199 5.56543 23.5138C5.56543 23.2165 5.56543 22.88 5.56543 22.5436C5.56543 22.1446 5.41818 21.949 5.13144 21.949C4.8447 21.949 4.68196 22.1524 4.68196 22.5358C4.68196 23.2947 4.68196 24.0458 4.68196 24.7969ZM19.8094 27.5197C19.7861 28.0361 19.8016 28.5525 19.8016 29.0846C14.7798 29.0846 9.78901 29.0846 4.77496 29.0846C4.77496 28.4039 4.75946 27.7466 4.79046 27.0816C4.79821 26.8938 4.9222 26.6904 5.05395 26.5417C5.43368 26.1036 5.65842 25.6263 5.67392 25.0395C5.68942 24.5857 6.07691 24.2336 6.52639 24.1945C6.61164 24.1867 6.69688 24.1945 6.78988 24.1945C10.4942 24.1945 14.1908 24.1945 17.8952 24.1945C18.6547 24.1945 18.9802 24.5074 19.0189 25.282C19.0422 25.6967 19.1894 26.0645 19.4529 26.3774C19.7241 26.7139 19.8249 27.0894 19.8094 27.5197ZM19.9954 19.1636C21.6383 19.9851 23.4672 22.3949 23.6222 25.1412C22.4055 25.1412 21.2121 25.1412 19.9954 25.1412C19.9954 23.1382 19.9954 21.1509 19.9954 19.1636ZM23.6222 27.8171C23.5447 28.5212 22.948 29.0376 22.235 29.0924C21.7391 29.1315 21.2353 29.1002 20.6851 29.1002C20.6851 28.5682 20.6774 28.0596 20.6851 27.551C20.7006 27.0346 20.6464 26.5417 20.3131 26.0723C21.4446 26.0723 22.5373 26.0723 23.6377 26.0723C23.6377 26.6591 23.6842 27.2459 23.6222 27.8171ZM13.9196 2.43552C13.6871 2.41987 13.4546 2.43552 13.2221 2.43552C12.3774 2.43552 11.5404 2.4277 10.6957 2.43552C10.0215 2.44335 9.61077 2.86585 9.60302 3.5309C9.60302 3.74215 9.60302 3.96123 9.60302 4.17248C9.61077 4.86101 10.0215 5.28351 10.7035 5.29134C11.2227 5.29916 11.7497 5.29134 12.2689 5.29134C12.8037 5.29134 13.3306 5.29134 13.8654 5.29134C13.8809 5.29134 13.9041 5.29134 13.9196 5.29134C14.5163 5.26004 14.9271 4.83754 14.9426 4.2429C14.9503 4.00035 14.9503 3.7578 14.9426 3.50743C14.9348 2.88932 14.5318 2.46682 13.9196 2.43552ZM14.0746 3.67956C14.0514 4.53239 14.1753 4.39156 13.3539 4.40721C12.9974 4.41503 12.6409 4.40721 12.2844 4.40721C11.7807 4.40721 11.2847 4.39938 10.781 4.40721C10.5485 4.41503 10.4787 4.32114 10.4787 4.09424C10.502 3.18664 10.3625 3.3353 11.215 3.32747C12.0519 3.31965 12.8966 3.3353 13.7336 3.31965C14.0049 3.31965 14.0824 3.41354 14.0746 3.67956Z" fill="#038CA9"/>
</svg>
