<svg width="21" height="21" viewBox="0 0 21 21" fill="none" xmlns="http://www.w3.org/2000/svg">
<path d="M20.6355 15.6711C20.5131 15.3206 20.3017 15.048 19.9957 14.8478C19.1445 14.2915 18.2989 13.7129 17.4255 13.1955C16.858 12.8561 16.2461 12.5891 15.6397 12.3109C15.0778 12.0606 14.5771 12.1941 14.171 12.6447C13.8372 13.0063 13.509 13.3735 13.1974 13.7574C13.0695 13.9132 12.9638 13.9243 12.7913 13.8575C10.1711 12.845 8.35745 11.0314 7.34495 8.41113C7.27819 8.23311 7.30044 8.12185 7.45621 8.01058C7.6398 7.87706 7.81226 7.72129 7.97915 7.56552C8.24063 7.32074 8.51322 7.08152 8.75244 6.81449C9.00835 6.5252 9.08067 6.17472 8.96384 5.80198C8.89708 5.59058 8.83589 5.37362 8.74131 5.17334C8.07373 3.71021 7.19474 2.36948 6.24343 1.07881C5.88182 0.566998 5.16417 0.210952 4.45764 0.822906C3.94026 1.26796 3.42844 1.72971 2.96113 2.23596C2.17116 3.08157 1.46463 3.9995 0.89718 5.02313C0.780352 5.22897 0.685777 5.44037 0.72472 5.69072C0.758099 5.90768 0.780352 6.13021 0.824858 6.34718C1.09189 7.74355 1.62596 9.03978 2.3158 10.2748C3.72886 12.8005 5.5981 14.9479 7.82895 16.7782C9.42003 18.08 11.1446 19.1704 13.0862 19.888C13.904 20.1885 14.7385 20.411 15.7065 20.5C15.8177 20.4555 16.018 20.4054 16.196 20.3053C17.6591 19.4597 18.9554 18.3971 20.0847 17.1398C20.2683 16.934 20.4185 16.6948 20.5687 16.4667C20.7245 16.2163 20.73 15.9493 20.6355 15.6711ZM16.5465 18.5251C16.2906 18.7142 16.0236 18.8978 15.7565 19.0647C15.6731 19.1148 15.5507 19.1481 15.4506 19.1314C14.0597 18.9312 12.7746 18.4194 11.5619 17.724C7.9569 15.6544 5.14748 12.7949 3.20035 9.10653C2.64403 8.05509 2.23791 6.94244 2.07658 5.75191C2.06546 5.66847 2.07102 5.56277 2.11552 5.50157C2.9667 4.17196 3.9792 2.98143 5.14748 1.92442C5.1586 1.9133 5.16973 1.9133 5.20311 1.89661C5.24761 1.94668 5.29768 2.00231 5.34219 2.05794C6.22118 3.26516 6.97777 4.55026 7.61754 5.89656C7.66761 6.00226 7.66761 6.06902 7.57304 6.1469C7.33938 6.34162 7.10573 6.54189 6.8832 6.74773C6.6106 6.99251 6.34357 7.24842 6.0821 7.50433C5.88182 7.69348 5.84288 7.92713 5.90964 8.19417C6.2323 9.47371 6.84426 10.6086 7.6398 11.6434C8.95828 13.3513 10.6439 14.5585 12.7079 15.2205C12.8136 15.2539 12.9193 15.2817 13.0306 15.3095C13.2865 15.3763 13.5201 15.3373 13.6981 15.1426C14.1154 14.692 14.5271 14.2303 14.9387 13.7685C15.1501 13.5293 15.1501 13.5293 15.445 13.6684C16.7412 14.2803 17.9651 15.0147 19.1223 15.8547C19.189 15.9048 19.2502 15.9549 19.3337 16.0216C18.4769 16.9618 17.5534 17.7907 16.5465 18.5251ZM10.7552 1.59619C10.8553 1.33472 11.0612 1.19008 11.3393 1.16782C11.4283 1.16226 11.5174 1.16782 11.6119 1.16782C15.5284 1.24015 18.9776 4.08295 19.8232 7.95495C19.9512 8.54465 19.9846 9.16217 20.0346 9.76856C20.068 10.1858 19.7676 10.4918 19.3782 10.4973C18.9943 10.5029 18.7162 10.2025 18.705 9.77968C18.6327 6.56415 16.7078 3.92162 13.6648 2.87017C12.9304 2.61982 12.1738 2.50856 11.395 2.49743C10.9054 2.49187 10.5827 2.04125 10.7552 1.59619ZM16.7134 9.68511C16.7078 9.77968 16.7078 9.87982 16.6911 9.9744C16.6188 10.3026 16.3128 10.5196 15.9846 10.4918C15.6397 10.464 15.3838 10.1802 15.3782 9.81863C15.3671 9.00083 15.1446 8.24424 14.6717 7.57109C13.8762 6.45288 12.7858 5.86874 11.4117 5.8298C11.0055 5.81867 10.7107 5.53495 10.7107 5.15665C10.7107 4.76723 11.0167 4.4835 11.4339 4.50019C11.7399 4.51132 12.0459 4.53357 12.3407 4.5892C14.7774 5.00644 16.6633 7.20948 16.7134 9.68511Z" fill="#868F90"/>
</svg>
