<svg width="152" height="160" viewBox="0 0 152 160" fill="none" xmlns="http://www.w3.org/2000/svg">
<path d="M124.439 126.487C125.609 127.532 126.737 128.535 128.116 129.747C125.108 132.128 122.433 134.552 119.508 136.6C106.053 146.085 91.0934 150.765 74.6295 150.389C68.3615 150.264 62.2607 148.676 56.2852 146.879C50.9366 145.249 45.6297 143.327 40.3646 141.405C39.2781 141.029 38.7349 141.196 38.0245 142.032C32.5087 148.425 26.7839 154.651 19.5966 159.248C19.3041 159.457 19.0116 159.624 18.3848 160C18.3848 159.164 18.3848 158.579 18.3848 157.994C18.3848 147.004 18.3848 136.015 18.3431 124.983C18.3431 124.189 18.0505 123.228 17.5491 122.601C5.1385 107.056 -0.50268 89.2972 1.00164 69.4903C2.54774 49.391 11.0722 32.551 26.0318 18.9704C26.2825 18.7197 26.575 18.5108 26.9929 18.2183C28.0375 19.4301 28.9986 20.5583 29.8344 21.5194C26.9093 24.6534 23.8589 27.5784 21.2263 30.8796C9.1918 45.9227 4.01027 63.1388 5.84888 82.3606C7.22783 96.9023 12.869 109.689 22.1456 120.888C22.6471 121.515 22.9814 122.434 22.9814 123.228C23.0231 131.669 23.0231 140.11 23.0231 148.55C23.0231 149.135 23.0231 149.679 23.0231 150.64C23.6499 150.097 24.1096 149.804 24.4439 149.386C28.4972 145.04 32.5505 140.736 36.562 136.307C37.3141 135.471 37.8156 135.304 38.902 135.722C49.0144 139.984 59.3357 143.494 70.2002 145.208C78.2232 146.503 86.1208 145.417 93.8931 143.411C105.008 140.569 114.745 135.179 123.269 127.532C123.687 127.156 124.147 126.78 124.439 126.487ZM128.994 21.8537C100.203 -6.68652 58.4163 -4.72255 33.8041 13.1203C34.6398 14.3739 35.4755 15.5857 36.3531 16.8393C63.9322 -1.71392 98.3225 2.46473 120.052 20.1822C131 29.1245 138.981 40.1144 143.118 53.6532C150.305 77.388 146.21 99.2424 131.417 119.091C132.713 120.094 133.841 120.971 134.969 121.891C157.409 94.3951 157.743 50.3521 128.994 21.8537ZM85.8283 107.725C79.2261 107.725 72.7909 107.725 66.1887 107.725C66.1887 77.7223 66.1887 47.7613 66.1887 17.675C72.6656 17.675 79.1843 17.675 85.8283 17.675C85.8283 47.6778 85.8283 77.5969 85.8283 107.725ZM81.0647 22.3969C77.6382 22.3969 74.337 22.3969 70.9105 22.3969C70.9105 49.2657 70.9105 76.0926 70.9105 102.961C74.337 102.961 77.6382 102.961 81.0647 102.961C81.0647 76.0508 81.0647 49.2657 81.0647 22.3969ZM49.3905 26.4502C48.7637 25.2802 48.1786 24.1937 47.5518 23.1073C47.4683 22.9401 47.3429 22.773 47.0922 22.4387C35.392 28.9992 26.7421 38.1922 21.2263 50.2685C17.6327 58.1662 15.7941 66.4399 15.8776 75.1733C17.5491 75.1733 18.9699 75.1733 20.4324 75.1733C21.2681 53.6115 30.9626 37.4401 49.3905 26.4502ZM112.154 117.336C113.199 118.548 114.118 119.634 115.246 120.93C128.827 108.644 135.805 93.6012 136.139 75.3822C134.426 75.3822 132.964 75.3822 131.459 75.3822C131.083 92.1387 124.606 106.095 112.154 117.336ZM66.0633 122.935C66.1051 117.503 70.5345 113.116 75.9667 113.116C81.4825 113.116 85.9537 117.587 85.9119 123.061C85.8701 128.451 81.399 132.922 76.0085 132.922C70.5345 132.922 66.0215 128.368 66.0633 122.935ZM70.827 122.935C70.7852 125.777 73.0834 128.159 75.9249 128.2C78.7246 128.242 81.1064 125.902 81.1482 123.061C81.19 120.219 78.9335 117.879 76.0503 117.879C73.167 117.837 70.8687 120.052 70.827 122.935ZM131.376 55.4083C131.376 56.9544 131.376 58.4169 131.376 59.963C133.005 59.963 134.551 59.963 136.181 59.963C136.181 58.3333 136.181 56.8708 136.181 55.4083C134.551 55.4083 133.005 55.4083 131.376 55.4083ZM131.376 69.95C133.047 69.95 134.593 69.95 136.223 69.95C136.223 68.3621 136.223 66.8996 136.223 65.3953C134.593 65.3953 133.047 65.3953 131.376 65.3953C131.376 67.0249 131.376 68.4457 131.376 69.95ZM20.5577 80.4802C18.8863 80.4802 17.382 80.4802 15.7523 80.4802C15.7523 82.1099 15.7523 83.5306 15.7523 85.0349C17.4237 85.0349 19.0116 85.0349 20.5577 85.0349C20.5577 83.4471 20.5577 81.9845 20.5577 80.4802ZM20.5577 90.5508C18.8863 90.5508 17.2984 90.5508 15.7523 90.5508C15.7523 92.1387 15.7523 93.6012 15.7523 95.1055C17.4237 95.1055 18.9281 95.1055 20.5577 95.1055C20.5577 93.5594 20.5577 92.1387 20.5577 90.5508Z" fill="#038CA9"/>
</svg>
