<svg width="13" height="7" viewBox="0 0 13 7" fill="none" xmlns="http://www.w3.org/2000/svg">
<path fill-rule="evenodd" clip-rule="evenodd" d="M0.0409194 3.0167C0.0276487 3.04621 0.0143651 3.07575 0 3.10448V3.36228C0.0202437 3.39637 0.0388141 3.43248 0.0574982 3.4688C0.0982989 3.54812 0.139642 3.6285 0.200135 3.69132C1.03459 4.56309 1.87245 5.42808 2.71369 6.29307C2.78832 6.37108 2.89008 6.44232 2.99523 6.47624C3.27 6.56783 3.50405 6.47963 3.70758 6.2761C4.03569 5.95137 4.36402 5.62664 4.6924 5.30185C5.68122 4.32386 6.67052 3.34538 7.656 2.365C7.74073 2.28163 7.82547 2.19839 7.91016 2.11521C8.24582 1.78551 8.58061 1.45666 8.91108 1.12349C9.26386 0.767314 9.14513 0.194047 8.68381 0.0380099C8.40905 -0.0535771 8.17499 0.0244415 7.96807 0.227968C7.54405 0.647461 7.11966 1.06658 6.69527 1.48569C5.84649 2.32392 4.99771 3.16215 4.15195 4.00339C3.93497 4.22037 3.72455 4.44226 3.51271 4.66566C3.41986 4.76357 3.32675 4.86177 3.23268 4.95997C3.2088 4.935 3.18804 4.91315 3.16941 4.89355C3.12983 4.8519 3.09985 4.82034 3.06986 4.79036C2.42875 4.12551 1.78425 3.45726 1.13975 2.79241C0.848028 2.4939 0.413838 2.49729 0.159429 2.80597C0.108306 2.86683 0.0746542 2.94167 0.0409194 3.0167ZM7.52116 4.5809C7.39841 4.71028 7.27517 4.84018 7.1506 4.97008C7.09054 4.90788 7.0454 4.85924 7.00488 4.81558C6.98133 4.7902 6.95934 4.76651 6.93689 4.74281C6.78764 4.59695 6.60447 4.52911 6.39415 4.55964C6.13975 4.59695 5.95657 4.73942 5.86838 4.98365C5.78018 5.23128 5.82767 5.46194 6.00745 5.65529C6.12346 5.77944 6.23947 5.89993 6.35548 6.02042C6.43282 6.10074 6.51016 6.18107 6.5875 6.26248C6.90297 6.59491 7.28289 6.60169 7.60853 6.27944C7.94265 5.94871 8.27678 5.61883 8.6109 5.28894C8.94502 4.95906 9.27914 4.62918 9.61327 4.29845L12.7747 1.1777C12.9036 1.05219 12.9884 0.906334 12.9986 0.72316C13.0156 0.455183 12.8629 0.200774 12.6187 0.0888346C12.3643 -0.0264972 12.0861 0.0277766 11.8724 0.238088C10.6886 1.40497 9.50472 2.57186 8.32766 3.74553C8.05536 4.01783 7.78945 4.29811 7.52116 4.5809Z" fill="#26C6A1"/>
</svg>
