<svg width="20" height="20" viewBox="0 0 20 20" fill="none" xmlns="http://www.w3.org/2000/svg">
<circle cx="10" cy="10" r="9.5" stroke="#A6AEAE"/>
<path fill-rule="evenodd" clip-rule="evenodd" d="M4.76544 14.9189C4.9657 15.1192 5.2904 15.1192 5.49067 14.9189L9.8421 10.5675L14.1936 14.919C14.3939 15.1193 14.7186 15.1193 14.9188 14.919C15.1191 14.7187 15.1191 14.394 14.9188 14.1938L10.5673 9.84227L14.9188 5.49084C15.119 5.29057 15.119 4.96587 14.9188 4.7656C14.7185 4.56533 14.3938 4.56533 14.1935 4.7656L9.8421 9.11703L5.49075 4.76568C5.29048 4.56542 4.96578 4.56542 4.76551 4.76569C4.56524 4.96595 4.56524 5.29065 4.76551 5.49092L9.11686 9.84227L4.76544 14.1937C4.56517 14.394 4.56517 14.7187 4.76544 14.9189Z" fill="#A6AEAE"/>
</svg>
