<svg width="25" height="30" viewBox="0 0 25 30" fill="none" xmlns="http://www.w3.org/2000/svg">
<path d="M24.6415 3.64109C24.6415 1.56997 23.0861 0.0062383 21.0233 0.0062383C15.309 -0.00207943 9.58641 -0.00207943 3.87212 0.0062383C3.48119 0.0062383 3.08194 0.0727802 2.71596 0.189229C1.17718 0.69661 0.253906 2.02745 0.253906 3.70763C0.253906 7.47557 0.253906 11.2435 0.253906 15.0031C0.253906 18.7711 0.253906 22.539 0.253906 26.2986C0.253906 28.4529 1.80101 30 3.93035 30C9.61968 30 15.3007 30 20.99 30C23.0695 30 24.6332 28.4363 24.6332 26.3568C24.6415 18.7877 24.6415 11.2102 24.6415 3.64109ZM22.3125 27.5879C21.9382 27.9871 21.4725 28.1368 20.9401 28.1368C16.8228 28.1368 12.7056 28.1368 8.58828 28.1368C7.06613 28.1368 5.53567 28.1368 4.01352 28.1368C2.80745 28.1368 2.13371 27.4548 2.13371 26.2404C2.13371 22.4974 2.13371 18.7544 2.13371 15.0031C2.13371 11.2518 2.13371 7.4922 2.13371 3.7409C2.13371 3.15866 2.29175 2.6596 2.74923 2.27698C3.07362 2.0025 3.44792 1.88605 3.87212 1.88605C9.59473 1.88605 15.3256 1.88605 21.0483 1.88605C21.9798 1.88605 22.6619 2.50988 22.7617 3.43315C22.7783 3.55791 22.7783 3.68268 22.7783 3.80744C22.7783 11.2768 22.7783 18.7461 22.7783 26.2154C22.77 26.7228 22.6785 27.1969 22.3125 27.5879ZM6.94137 16.8912C10.4847 16.858 14.0364 16.8829 17.5798 16.8746C17.6962 16.8746 17.8126 16.8829 17.9208 16.8663C18.4365 16.8164 18.8191 16.3173 18.7359 15.8099C18.5446 14.6455 18.0955 13.5891 17.3552 12.6575C16.7397 11.8923 15.9827 11.31 15.0844 10.8775C16.4735 9.11416 16.1657 6.9765 14.9181 5.71221C13.6455 4.42296 11.6492 4.22333 10.1603 5.23809C9.41173 5.74548 8.90435 6.43585 8.65482 7.30921C8.28052 8.62341 8.6465 9.79622 9.43669 10.8775C9.32024 10.9441 9.24538 10.9857 9.1622 11.0272C7.40716 12.0586 6.21772 13.5059 5.81847 15.5521C5.67707 16.2924 6.05969 16.8912 6.94137 16.8912ZM12.273 6.56893C13.3128 6.57725 14.1362 7.42566 14.1279 8.46538C14.1196 9.48014 13.2712 10.3202 12.2564 10.3202C11.2167 10.3202 10.3683 9.45519 10.3849 8.40715C10.4015 7.38407 11.2583 6.56062 12.273 6.56893ZM12.1982 12.1751C14.4856 12.1501 16.1075 13.7471 16.5317 14.9698C13.6871 14.9698 10.8424 14.9698 7.99772 14.9698C8.42192 13.7222 10.0522 12.2 12.1982 12.1751ZM4.02184 20.6841C3.99689 20.2017 4.24642 19.8274 4.68726 19.7359C4.8453 19.7026 5.01997 19.6943 5.17801 19.6943C10.0189 19.6943 14.8682 19.6943 19.7091 19.6943C19.8505 19.6943 20.0002 19.7026 20.1416 19.7276C20.624 19.8191 20.8985 20.1851 20.8736 20.6925C20.8486 21.1998 20.5409 21.5242 20.0418 21.5658C19.917 21.5741 19.7923 21.5741 19.6675 21.5741C17.2637 21.5741 14.8515 21.5741 12.4477 21.5741C10.0439 21.5741 7.63174 21.5741 5.22791 21.5741C5.08651 21.5741 4.93679 21.5741 4.79539 21.5575C4.33791 21.4993 4.04679 21.1666 4.02184 20.6841ZM20.8819 24.3273C20.9068 24.8513 20.6157 25.2173 20.1167 25.2922C19.9669 25.3171 19.8089 25.3171 19.6509 25.3171C17.247 25.3171 14.8349 25.3171 12.4311 25.3171C10.0356 25.3171 7.64006 25.3171 5.24455 25.3171C5.08651 25.3171 4.92847 25.3171 4.77876 25.2922C4.28801 25.2173 4.00521 24.8596 4.02184 24.3523C4.03848 23.8449 4.33791 23.5122 4.83698 23.4623C4.97006 23.4456 5.10315 23.4456 5.24455 23.4456C10.0605 23.4456 14.8682 23.4456 19.6841 23.4456C19.8089 23.4456 19.9337 23.4456 20.0584 23.4539C20.5492 23.5038 20.8569 23.8199 20.8819 24.3273Z" fill="white"/>
</svg>
