<svg width="20" height="21" viewBox="0 0 20 21" fill="none" xmlns="http://www.w3.org/2000/svg">
<path d="M14.3937 15.8021C10.5147 18.9909 4.95736 18.232 1.99762 14.6046C-0.878553 11.0885 -0.620881 5.99199 2.58957 2.80318C5.78609 -0.371708 10.8699 -0.615395 14.3589 2.23922C18.029 5.24701 18.7115 10.7961 15.5707 14.6255C15.6333 14.6881 15.696 14.7577 15.7587 14.8274C17.0819 16.1572 18.412 17.4801 19.7352 18.8099C20.0068 19.0814 20.0695 19.4435 19.9232 19.7707C19.777 20.084 19.4357 20.3068 19.0945 20.2372C18.8856 20.1954 18.6627 20.0771 18.5165 19.9309C17.2003 18.6358 15.9049 17.3339 14.6026 16.0319C14.533 15.9553 14.4703 15.8857 14.3937 15.8021ZM1.67727 9.03459C1.67727 12.9475 4.84594 16.1224 8.74584 16.1293C12.6875 16.1363 15.8771 12.9475 15.8701 9.00674C15.8631 5.09383 12.6736 1.92591 8.75976 1.93287C4.83201 1.93983 1.67031 5.10776 1.67727 9.03459ZM3.80132 10.2878C4.20524 10.3087 4.70666 9.96756 4.6788 9.30613C4.66487 8.99978 4.72755 8.6795 4.80415 8.38012C5.30557 6.34708 7.03267 4.97547 9.15672 4.91977C9.67206 4.90584 10.0342 4.55772 10.0342 4.08427C10.0342 3.60386 9.65117 3.24878 9.12886 3.24878C8.9478 3.24878 8.76673 3.26966 8.58566 3.28359C5.51449 3.56905 3.07706 6.17998 3.00742 9.26435C2.98652 9.87009 3.29294 10.26 3.80132 10.2878Z" fill="#868F90"/>
</svg>
