<svg width="28" height="30" viewBox="0 0 28 30" fill="none" xmlns="http://www.w3.org/2000/svg">
<path d="M4.53581 30C3.98011 29.8278 3.39311 29.7182 2.86872 29.4834C1.13902 28.6929 -0.504583 26.658 0.145033 23.7386C0.763342 20.9758 1.27208 18.1895 1.82777 15.4189C1.953 14.8084 1.74951 14.237 1.63993 13.6579C1.1312 11.075 0.598981 8.50006 0.0980725 5.90943C-0.355876 3.56924 0.857262 1.35429 3.08787 0.407259C4.5906 -0.226704 6.04636 -0.109303 7.47082 0.681193C13.1217 3.83535 18.7882 6.98168 24.4391 10.128C25.0418 10.4646 25.6757 10.7855 26.2001 11.2159C28.7751 13.3291 28.4698 17.5399 25.5896 19.207C22.7251 20.8662 19.8057 22.4472 16.9098 24.0595C13.8026 25.7892 10.6876 27.5111 7.58039 29.2486C6.93078 29.6087 6.25768 29.8513 5.53763 29.9922C5.20108 30 4.87236 30 4.53581 30ZM7.77606 13.3604C8.59004 13.3604 9.39619 13.3604 10.2102 13.3604C11.1963 13.3526 11.932 14.057 11.932 14.9962C11.932 15.9433 11.2042 16.6398 10.2102 16.632C8.54308 16.632 6.86817 16.632 5.20108 16.6242C5.00541 16.6242 4.91932 16.6633 4.87236 16.8825C4.59842 18.3069 4.30101 19.7314 4.01925 21.1558C3.76879 22.4159 3.50269 23.676 3.28354 24.944C3.13483 25.7971 3.6827 26.5641 4.5045 26.7363C5.00541 26.838 5.44371 26.6658 5.87417 26.431C11.6894 23.1986 17.4968 19.9662 23.3121 16.7337C23.6016 16.5694 23.8991 16.4207 24.1573 16.2172C24.9791 15.5754 24.9713 14.4092 24.1573 13.7674C23.993 13.6344 23.7973 13.5248 23.6173 13.4231C17.7629 10.1671 11.9086 6.91124 6.04636 3.66316C5.81939 3.53794 5.58459 3.40488 5.34196 3.31879C4.45754 3.01355 3.54965 3.47532 3.33833 4.35191C3.26788 4.65716 3.26788 5.00153 3.3305 5.30677C3.83923 7.92089 4.37145 10.5272 4.88801 13.1413C4.92714 13.3291 4.99758 13.3761 5.1776 13.3683C6.03854 13.3604 6.9073 13.3604 7.77606 13.3604Z" fill="white"/>
</svg>
