<svg width="30" height="30" viewBox="0 0 30 30" fill="none" xmlns="http://www.w3.org/2000/svg">
<path fill-rule="evenodd" clip-rule="evenodd" d="M23.1509 2.99378C21.9116 2.99554 20.6723 2.9973 19.433 2.98322C18.7571 2.97383 18.1937 2.5044 18.0435 1.85659C17.8839 1.21817 18.1468 0.54219 18.7195 0.222979C18.9448 0.0915386 19.2265 0.00704143 19.48 0.00704143C22.4843 -0.00234714 25.4981 -0.00234714 28.5118 0.00704143C29.3568 0.00704143 29.9764 0.636076 29.9764 1.48105C29.9858 4.49478 29.9858 7.49913 29.9764 10.5129C29.967 11.3672 29.3004 11.9963 28.4648 11.9869C27.648 11.9869 27.0096 11.3578 27.0002 10.5129C26.9861 9.28088 26.9879 8.05418 26.9897 6.82485C26.9903 6.4147 26.9908 6.00427 26.9908 5.59325V5.2177C26.9674 5.19892 26.9415 5.18014 26.9157 5.16136C26.8899 5.14259 26.8641 5.12381 26.8406 5.10504C26.8207 5.14207 26.8025 5.18169 26.7842 5.22155C26.7421 5.31306 26.6995 5.40579 26.6341 5.47119C24.8973 7.21271 23.1581 8.95188 21.4189 10.691C19.6796 12.4303 17.9403 14.1696 16.2034 15.9113C15.8748 16.2493 15.5086 16.484 15.011 16.484C14.3914 16.484 13.9313 16.2023 13.6591 15.6484C13.3868 15.0945 13.4525 14.5499 13.8281 14.0617C13.8959 13.9713 13.9879 13.8808 14.075 13.7953C14.0964 13.7742 14.1175 13.7535 14.1379 13.7331L24.4747 3.39632C24.5463 3.31821 24.6314 3.25815 24.7176 3.19737C24.7557 3.17048 24.794 3.14345 24.8315 3.11466C24.8221 3.09588 24.8103 3.07476 24.7986 3.05363C24.7869 3.03251 24.7751 3.01139 24.7657 2.99261H24.3902C23.9771 2.99261 23.564 2.9932 23.1509 2.99378ZM28.052 15.0662C28.9909 14.7845 29.9579 15.4323 29.9673 16.4087C29.9706 16.8854 29.9748 17.3621 29.979 17.8389C29.9985 20.0666 30.0181 22.2966 29.9485 24.5393C29.8546 27.3652 27.2822 29.8438 24.4562 29.9846C24.3986 29.9846 24.3435 29.9871 24.2896 29.9895C24.238 29.9918 24.1875 29.994 24.137 29.994C22.3993 29.994 20.6608 29.9956 18.9218 29.9971C14.5724 30.0009 10.2196 30.0048 5.86682 29.9846C3.18168 29.9659 0.890872 28.1351 0.214894 25.5438C0.0740655 24.9805 0.017734 24.389 0.017734 23.8069C0.00365018 21.5958 0.00541171 19.3899 0.00717218 17.1854C0.00775885 16.4507 0.0083454 15.7162 0.0083454 14.9817C0.0083454 13.9827 0.00625614 12.9847 0.00416834 11.9874C-2.90898e-06 9.99496 -0.00416834 8.00527 0.0083454 6.01559C0.017734 3.11452 1.92362 0.757986 4.74019 0.128951C5.11573 0.0538422 5.50066 0.00689935 5.8856 0.00689935C8.41112 -0.00248923 10.9273 -0.00248923 13.4434 0.0162879C14.5325 0.0162879 15.246 0.9927 14.9174 1.9785C14.7015 2.61692 14.1475 3.00186 13.3965 3.00186C12.5894 3.00186 11.7813 3.00081 10.9728 2.99977C9.35485 2.99768 7.73549 2.9956 6.12031 3.00186C4.82469 3.00186 3.8295 3.56517 3.28496 4.75752C3.09719 5.17062 3.0033 5.65882 3.0033 6.11886C2.98452 12.0431 2.98452 17.9766 2.99391 23.9008C2.99391 25.7128 4.28954 26.9991 6.10153 26.9991C12.0257 27.0085 17.9593 27.0085 23.8835 26.9991C25.7143 26.9991 26.9817 25.7034 26.9911 23.8633C26.9974 22.2481 26.9953 20.6287 26.9932 19.0108C26.9922 18.2023 26.9911 17.3942 26.9911 16.5871C26.9911 15.8267 27.3948 15.2633 28.052 15.0662Z" fill="white"/>
</svg>
