<svg width="22" height="16" viewBox="0 0 22 16" fill="none" xmlns="http://www.w3.org/2000/svg">
<path d="M16.3926 3.89533C17.2894 2.99883 18.1919 2.09677 19.0887 1.20027C19.2781 1.01095 19.384 0.799352 19.3283 0.526505C19.2726 0.275931 19.1166 0.108882 18.8715 0.0309253C18.6041 -0.0470311 18.3813 0.025357 18.1863 0.21468C17.529 0.87174 16.8661 1.5288 16.2143 2.19143C16.0973 2.31393 16.0082 2.33621 15.8411 2.26382C13.585 1.29493 11.2398 1.04993 8.84996 1.61233C5.20679 2.46428 2.57746 4.68046 0.666748 7.83213C0.666748 7.94349 0.666748 8.05486 0.666748 8.16623C1.82543 10.1764 3.42977 11.7578 5.4129 13.0162C5.32934 13.083 5.26807 13.1276 5.21236 13.1833C4.6553 13.7345 4.09824 14.2914 3.54675 14.8482C3.35178 15.0431 3.28493 15.2714 3.36849 15.5331C3.45205 15.7892 3.63031 15.9396 3.89213 15.9897C4.17623 16.0398 4.38234 15.9006 4.57174 15.7113C8.51016 11.7689 12.4541 7.83213 16.3926 3.89533ZM8.44331 5.24286C7.31248 6.43448 6.83898 8.49476 8.05337 10.2878C7.49074 10.8502 6.93368 11.407 6.3599 11.9805C5.69143 11.6074 5.04524 11.1397 4.44362 10.6163C3.60246 9.88683 2.85599 9.06272 2.22095 8.14395C2.15967 8.05486 2.12068 7.98804 2.20423 7.87111C3.69159 5.75515 5.56888 4.10693 8.04223 3.2327C10.3373 2.41973 12.6324 2.46985 14.9108 3.33293C14.9442 3.34407 14.9721 3.36634 14.9888 3.37191C14.5431 3.82294 14.0975 4.26841 13.6518 4.71387C11.7188 3.41646 9.55743 4.06238 8.44331 5.24286ZM9.47944 6.08925C10.4432 5.15377 11.8302 5.15377 12.638 5.69946C11.4403 6.89665 10.2426 8.09384 9.03936 9.29659C8.40989 8.36112 8.60486 6.9412 9.47944 6.08925ZM21.835 8.49476C20.1304 11.123 17.8966 13.0942 14.8941 14.0965C12.6714 14.8371 10.4209 14.8538 8.17035 14.2078C8.12579 14.1967 8.08122 14.1744 8.0088 14.1466C8.36532 13.7958 8.69956 13.4561 9.04494 13.1276C9.08393 13.0886 9.17306 13.083 9.23434 13.0942C12.5823 13.7902 15.5068 12.9049 18.1027 10.7555C19.0052 10.0093 19.7795 9.13511 20.4535 8.17736C20.5538 8.03815 20.5427 7.94906 20.448 7.82099C19.6569 6.70176 18.7266 5.71617 17.6348 4.88092C17.5735 4.83638 17.5178 4.78626 17.4677 4.74728C17.7908 4.42432 18.1027 4.10693 18.4425 3.77283C18.7656 4.04568 19.0999 4.32409 19.423 4.61364C20.3533 5.4656 21.1554 6.42891 21.835 7.49803C22.0523 7.84326 22.0579 8.14952 21.835 8.49476ZM15.2116 6.9579C15.5514 8.55601 15.1837 9.89797 14.0139 10.9615C12.9666 11.9137 11.7244 12.1921 10.2983 11.8636C10.7161 11.4515 11.0949 11.0673 11.4849 10.6942C11.5294 10.6497 11.613 10.6386 11.6743 10.633C12.8608 10.4938 13.8301 9.52489 13.9693 8.33884C13.9749 8.27202 13.9861 8.1885 14.0306 8.14395C14.4094 7.75974 14.7938 7.38109 15.2116 6.9579Z" fill="#868F90" fill-opacity="0.7"/>
</svg>
